<svg width="760" height="240" viewBox="0 0 760 240" fill="none" xmlns="http://www.w3.org/2000/svg">
<g clip-path="url(#clip0_26_906)">
<rect width="760" height="240" rx="16" fill="#A0A0A0" fill-opacity="0.05"/>
<path d="M74.282 120V112.727H75.1627V119.219H78.5434V120H74.282ZM79.907 120V112.727H82.3644C82.935 112.727 83.4014 112.83 83.7636 113.036C84.1282 113.24 84.3981 113.516 84.5732 113.864C84.7484 114.212 84.836 114.6 84.836 115.028C84.836 115.457 84.7484 115.846 84.5732 116.197C84.4004 116.547 84.1329 116.826 83.7707 117.035C83.4085 117.241 82.9445 117.344 82.3786 117.344H80.6173V116.562H82.3502C82.7409 116.562 83.0545 116.495 83.2913 116.36C83.528 116.225 83.6997 116.043 83.8062 115.813C83.9151 115.581 83.9695 115.32 83.9695 115.028C83.9695 114.737 83.9151 114.477 83.8062 114.247C83.6997 114.018 83.5268 113.838 83.2877 113.707C83.0486 113.575 82.7314 113.509 82.336 113.509H80.7877V120H79.907ZM90.0047 115.767L89.2519 115.98C89.2045 115.855 89.1347 115.733 89.0423 115.614C88.9524 115.494 88.8293 115.394 88.673 115.316C88.5168 115.238 88.3167 115.199 88.0729 115.199C87.7391 115.199 87.4609 115.276 87.2384 115.43C87.0182 115.581 86.9081 115.774 86.9081 116.009C86.9081 116.217 86.9839 116.381 87.1354 116.502C87.2869 116.623 87.5236 116.723 87.8456 116.804L88.6553 117.003C89.143 117.121 89.5064 117.302 89.7455 117.546C89.9846 117.788 90.1041 118.099 90.1041 118.48C90.1041 118.793 90.0142 119.072 89.8343 119.318C89.6567 119.564 89.4081 119.759 89.0885 119.901C88.7689 120.043 88.3972 120.114 87.9735 120.114C87.4171 120.114 86.9566 119.993 86.5921 119.751C86.2275 119.51 85.9967 119.157 85.8996 118.693L86.695 118.494C86.7708 118.788 86.914 119.008 87.1247 119.155C87.3378 119.302 87.616 119.375 87.9593 119.375C88.3499 119.375 88.66 119.292 88.8896 119.126C89.1217 118.958 89.2377 118.757 89.2377 118.523C89.2377 118.333 89.1714 118.175 89.0388 118.047C88.9062 117.917 88.7026 117.82 88.428 117.756L87.5189 117.543C87.0194 117.424 86.6524 117.241 86.4181 116.992C86.186 116.741 86.07 116.428 86.07 116.051C86.07 115.743 86.1565 115.471 86.3293 115.234C86.5045 114.998 86.7424 114.812 87.0431 114.677C87.3461 114.542 87.6894 114.474 88.0729 114.474C88.6127 114.474 89.0364 114.593 89.3442 114.83C89.6543 115.066 89.8745 115.379 90.0047 115.767Z" fill="#7D7D7D"/>
<rect x="215" y="28" width="162" height="127.257" rx="14" fill="#838282" fill-opacity="0.1"/>
<path d="M257.71 59.4558C257.71 62.4074 255.317 64.7996 252.366 64.7996C249.414 64.7996 247.021 62.4074 247.021 59.4558V54.324H249.159V59.4558C249.159 61.2267 250.595 62.6619 252.366 62.6619C254.137 62.6619 255.572 61.2267 255.573 59.4558V54.1111H249.159V54.1101H247.021V51.9724H255.359V54.1101H255.573V45.7732H257.71V59.4558ZM249.159 43.4216V51.7585H247.021V43.4207H263.055C266.007 43.4207 268.4 45.8136 268.4 48.7654C268.4 51.717 266.008 54.1098 263.056 54.1101H257.924V51.9724H263.055C264.826 51.9724 266.262 50.5372 266.262 48.7664C266.262 46.9953 264.826 45.5593 263.055 45.5593H249.372V43.4216H249.159Z" fill="#E1E5F0"/>
<path d="M247.021 41.6034C247.021 41.013 247.499 40.5344 248.09 40.5344C248.68 40.5344 249.159 41.013 249.159 41.6034V51.7583H247.021V41.6034Z" fill="url(#paint0_linear_26_906)"/>
<path d="M244.669 45.5586C244.079 45.5586 243.6 45.08 243.6 44.4897C243.6 43.8993 244.079 43.4207 244.669 43.4207H246.807V45.5586H244.669Z" fill="url(#paint1_linear_26_906)"/>
<path d="M255.572 41.0689C255.572 40.4786 256.051 40 256.641 40C257.232 40 257.71 40.4786 257.71 41.0689V43.2068H255.572V41.0689Z" fill="url(#paint2_linear_26_906)"/>
<path d="M244.883 54.1101C244.293 54.1101 243.814 53.6315 243.814 53.0412C243.814 52.4508 244.293 51.9722 244.883 51.9722H255.359V54.1101H244.883Z" fill="url(#paint3_linear_26_906)"/>
<path d="M247.021 41.2828C247.021 40.6924 247.499 40.2139 248.09 40.2139C248.68 40.2139 249.159 40.6924 249.159 41.2828V51.7585H247.021V41.2828Z" fill="url(#paint4_linear_26_906)"/>
<path d="M255.572 45.7722H257.71V57.3168H255.572V45.7722Z" fill="url(#paint5_linear_26_906)"/>
<path d="M260.917 43.4207V45.5585H249.373V43.4207H260.917Z" fill="url(#paint6_linear_26_906)"/>
<path d="M276.538 57.8997V46.3578H280.866C281.753 46.3578 282.497 46.5232 283.098 46.8538C283.703 47.1844 284.159 47.639 284.468 48.2176C284.779 48.7924 284.935 49.4462 284.935 50.1788C284.935 50.919 284.779 51.5765 284.468 52.1513C284.156 52.7261 283.695 53.1789 283.087 53.5095C282.478 53.8364 281.729 53.9998 280.838 53.9998H277.97V52.2809H280.556C281.075 52.2809 281.499 52.1907 281.83 52.0104C282.161 51.8301 282.405 51.5821 282.563 51.2665C282.724 50.9509 282.805 50.5883 282.805 50.1788C282.805 49.7693 282.724 49.4086 282.563 49.0968C282.405 48.7849 282.159 48.5426 281.824 48.3698C281.494 48.1932 281.067 48.1049 280.545 48.1049H278.629V57.8997H276.538ZM290.846 58.0687C289.978 58.0687 289.228 57.8884 288.597 57.5277C287.97 57.1633 287.487 56.6485 287.149 55.9835C286.81 55.3148 286.641 54.5277 286.641 53.6222C286.641 52.7318 286.81 51.9503 287.149 51.2778C287.49 50.6015 287.968 50.0755 288.58 49.6998C289.192 49.3203 289.912 49.1306 290.739 49.1306C291.272 49.1306 291.775 49.217 292.249 49.3898C292.726 49.5589 293.147 49.8219 293.511 50.1788C293.879 50.5357 294.169 50.9903 294.379 51.5426C294.59 52.0912 294.695 52.7449 294.695 53.5038V54.1294H287.599V52.7543H292.739C292.735 52.3636 292.651 52.016 292.486 51.7117C292.32 51.4036 292.089 51.1613 291.792 50.9847C291.499 50.8081 291.157 50.7198 290.767 50.7198C290.35 50.7198 289.983 50.8213 289.668 51.0242C289.352 51.2233 289.106 51.4863 288.929 51.8132C288.757 52.1363 288.668 52.4913 288.665 52.8783V54.0787C288.665 54.5821 288.757 55.0142 288.941 55.3749C289.125 55.7318 289.382 56.0061 289.713 56.1977C290.043 56.3855 290.43 56.4795 290.874 56.4795C291.171 56.4795 291.439 56.4381 291.68 56.3555C291.92 56.2691 292.129 56.1432 292.305 55.9779C292.482 55.8126 292.615 55.6078 292.705 55.3636L294.61 55.5778C294.49 56.0812 294.261 56.5208 293.923 56.8965C293.588 57.2685 293.16 57.5578 292.638 57.7644C292.115 57.9673 291.518 58.0687 290.846 58.0687ZM298.937 52.8276V57.8997H296.897V49.2433H298.847V50.7142H298.948C299.147 50.2295 299.465 49.8444 299.901 49.5589C300.34 49.2734 300.883 49.1306 301.529 49.1306C302.127 49.1306 302.647 49.2583 303.09 49.5138C303.537 49.7693 303.883 50.1394 304.127 50.624C304.375 51.1087 304.497 51.6967 304.494 52.388V57.8997H302.454V52.7036C302.454 52.125 302.303 51.6723 302.003 51.3454C301.706 51.0185 301.294 50.8551 300.768 50.8551C300.412 50.8551 300.094 50.934 299.816 51.0918C299.542 51.2458 299.326 51.4694 299.168 51.7624C299.014 52.0555 298.937 52.4105 298.937 52.8276ZM309.084 52.8276V57.8997H307.044V49.2433H308.994V50.7142H309.095C309.294 50.2295 309.612 49.8444 310.047 49.5589C310.487 49.2734 311.03 49.1306 311.676 49.1306C312.274 49.1306 312.794 49.2583 313.237 49.5138C313.684 49.7693 314.03 50.1394 314.274 50.624C314.522 51.1087 314.644 51.6967 314.64 52.388V57.8997H312.6V52.7036C312.6 52.125 312.45 51.6723 312.15 51.3454C311.853 51.0185 311.441 50.8551 310.915 50.8551C310.558 50.8551 310.241 50.934 309.963 51.0918C309.689 51.2458 309.473 51.4694 309.315 51.7624C309.161 52.0555 309.084 52.4105 309.084 52.8276ZM318.149 61.1458C317.871 61.1458 317.613 61.1233 317.376 61.0782C317.144 61.0368 316.958 60.988 316.819 60.9316L317.292 59.3424C317.589 59.4288 317.854 59.4701 318.087 59.4664C318.32 59.4626 318.524 59.3893 318.701 59.2466C318.881 59.1076 319.033 58.8746 319.157 58.5478L319.332 58.08L316.193 49.2433H318.357L320.352 55.7807H320.442L322.443 49.2433H324.613L321.147 58.9479C320.985 59.4063 320.771 59.7989 320.504 60.1257C320.238 60.4564 319.911 60.7081 319.524 60.8809C319.14 61.0575 318.682 61.1458 318.149 61.1458ZM333.342 51.5314L331.482 51.7343C331.43 51.5464 331.338 51.3698 331.206 51.2045C331.079 51.0392 330.906 50.9058 330.688 50.8044C330.47 50.7029 330.203 50.6522 329.888 50.6522C329.463 50.6522 329.106 50.7443 328.817 50.9284C328.531 51.1125 328.39 51.351 328.394 51.6441C328.39 51.8958 328.482 52.1006 328.67 52.2584C328.862 52.4162 329.177 52.5458 329.617 52.6472L331.094 52.9628C331.913 53.1394 332.521 53.4193 332.92 53.8025C333.322 54.1858 333.524 54.6873 333.528 55.3073C333.524 55.852 333.365 56.3329 333.049 56.75C332.737 57.1633 332.303 57.4864 331.747 57.7193C331.191 57.9523 330.553 58.0687 329.831 58.0687C328.772 58.0687 327.919 57.8471 327.273 57.4037C326.626 56.9566 326.241 56.3348 326.117 55.5383L328.107 55.3467C328.197 55.7374 328.388 56.0324 328.682 56.2315C328.975 56.4306 329.356 56.5302 329.826 56.5302C330.31 56.5302 330.699 56.4306 330.992 56.2315C331.289 56.0324 331.437 55.7863 331.437 55.4932C331.437 55.2453 331.342 55.0405 331.15 54.8789C330.962 54.7174 330.669 54.5934 330.271 54.507L328.794 54.197C327.964 54.0242 327.35 53.733 326.951 53.3235C326.553 52.9102 326.356 52.388 326.36 51.7568C326.356 51.2233 326.501 50.7612 326.794 50.3704C327.09 49.9759 327.502 49.6716 328.028 49.4574C328.558 49.2395 329.168 49.1306 329.859 49.1306C330.874 49.1306 331.672 49.3466 332.255 49.7787C332.841 50.2107 333.203 50.795 333.342 51.5314ZM335.687 57.8997V49.2433H337.727V57.8997H335.687ZM336.712 48.0147C336.389 48.0147 336.111 47.9076 335.878 47.6935C335.645 47.4756 335.529 47.2145 335.529 46.9101C335.529 46.6021 335.645 46.3409 335.878 46.1268C336.111 45.9089 336.389 45.7999 336.712 45.7999C337.039 45.7999 337.317 45.9089 337.546 46.1268C337.779 46.3409 337.896 46.6021 337.896 46.9101C337.896 47.2145 337.779 47.4756 337.546 47.6935C337.317 47.9076 337.039 48.0147 336.712 48.0147ZM342.792 58.0744C342.243 58.0744 341.749 57.9767 341.309 57.7813C340.874 57.5822 340.528 57.2891 340.272 56.9021C340.021 56.5152 339.895 56.038 339.895 55.4707C339.895 54.9823 339.985 54.5784 340.165 54.259C340.346 53.9397 340.592 53.6842 340.904 53.4926C341.215 53.301 341.567 53.1563 341.957 53.0586C342.352 52.9572 342.76 52.8839 343.18 52.8388C343.688 52.7862 344.099 52.7393 344.415 52.6979C344.73 52.6529 344.959 52.5852 345.102 52.4951C345.249 52.4011 345.322 52.2565 345.322 52.0611V52.0273C345.322 51.6028 345.196 51.274 344.944 51.0411C344.693 50.8081 344.33 50.6917 343.857 50.6917C343.357 50.6917 342.961 50.8006 342.668 51.0185C342.378 51.2364 342.183 51.4938 342.081 51.7906L340.177 51.5201C340.327 50.9941 340.575 50.5545 340.921 50.2014C341.266 49.8444 341.689 49.5777 342.189 49.4011C342.688 49.2208 343.241 49.1306 343.845 49.1306C344.262 49.1306 344.678 49.1794 345.091 49.2771C345.504 49.3748 345.882 49.5363 346.224 49.7618C346.566 49.9834 346.84 50.2859 347.046 50.6691C347.257 51.0523 347.362 51.5314 347.362 52.1062V57.8997H345.401V56.7105H345.333C345.209 56.951 345.035 57.1764 344.809 57.3868C344.587 57.5935 344.308 57.7606 343.969 57.8884C343.635 58.0124 343.242 58.0744 342.792 58.0744ZM343.321 56.5753C343.731 56.5753 344.086 56.4945 344.386 56.3329C344.687 56.1676 344.918 55.9497 345.08 55.6792C345.245 55.4087 345.328 55.1138 345.328 54.7944V53.7744C345.264 53.827 345.155 53.8758 345.001 53.9209C344.85 53.966 344.681 54.0054 344.494 54.0392C344.306 54.073 344.12 54.1031 343.936 54.1294C343.751 54.1557 343.592 54.1782 343.457 54.197C343.152 54.2384 342.88 54.306 342.639 54.3999C342.399 54.4938 342.209 54.6253 342.07 54.7944C341.931 54.9597 341.862 55.1739 341.862 55.4369C341.862 55.8126 341.999 56.0962 342.273 56.2879C342.547 56.4795 342.897 56.5753 343.321 56.5753Z" fill="white"/>
<rect x="236" y="76.7996" width="120" height="36" rx="8" fill="#A1A1A1" fill-opacity="0.15"/>
<g clip-path="url(#clip1_26_906)">
<path d="M254 84.7996H254C248.477 84.7996 244 89.2767 244 94.7996C244 100.322 248.477 104.8 254 104.8H254C259.523 104.8 264 100.322 264 94.7996C264 89.2767 259.523 84.7996 254 84.7996Z" fill="#141416"/>
<path d="M255.786 96.9225C252.478 97.9147 249.743 99.362 248.03 101.058L247.954 101.133C248.41 101.563 248.909 101.948 249.449 102.276L249.565 102.134C250.033 101.563 250.534 101.012 251.056 100.492C252.457 99.0977 254.061 97.8902 255.787 96.9207L255.786 96.9225Z" fill="#F5F5F5"/>
<path d="M245.25 95.4524C245.382 97.2216 246.04 98.8439 247.072 100.163L247.119 100.116C248.179 99.0714 249.56 98.1211 251.225 97.2934C252.684 96.5671 254.36 95.9441 256.166 95.4524H245.25Z" fill="#F5F5F5"/>
<path d="M251.981 88.1811C254.94 91.1263 258.664 93.0741 262.749 93.8126C262.256 89.4463 258.536 86.0496 254.015 86.0496C252.821 86.0496 251.684 86.2876 250.645 86.7163C251.067 87.2238 251.517 87.7173 251.981 88.1811Z" fill="#F5F5F5"/>
<path d="M248.03 88.5417C249.743 90.2392 252.478 91.6847 255.786 92.6787C254.059 91.7075 252.456 90.5017 251.054 89.107C250.534 88.589 250.033 88.0377 249.563 87.4655L249.447 87.3237C248.907 87.651 248.408 88.036 247.954 88.4665L248.03 88.5417Z" fill="#F5F5F5"/>
<path d="M251.981 101.418C251.515 101.882 251.065 102.376 250.645 102.883C251.682 103.312 252.821 103.55 254.015 103.55C258.536 103.55 262.256 100.153 262.75 95.7849C258.666 96.5234 254.942 98.4712 251.983 101.417L251.981 101.418Z" fill="#F5F5F5"/>
<path d="M251.225 92.3058C249.56 91.478 248.179 90.5278 247.119 89.483L247.072 89.4358C246.04 90.7553 245.382 92.3775 245.25 94.1468H256.164C254.358 93.655 252.684 93.032 251.223 92.304L251.225 92.3058Z" fill="#F5F5F5"/>
</g>
<g clip-path="url(#clip2_26_906)">
<path d="M282 84.7996C287.523 84.7996 292 89.277 292 94.7996C292 100.322 287.522 104.8 282 104.8C276.478 104.8 272 100.323 272 94.7996C272 89.2758 276.477 84.7996 282 84.7996Z" fill="#53AE94"/>
<path d="M283.234 93.4673V91.9797H286.636V89.7131H277.373V91.9797H280.775V93.4661C278.01 93.5931 275.931 94.1407 275.931 94.7967C275.931 95.4527 278.011 96.0003 280.775 96.1281V100.893H283.235V96.1277C285.995 96.0003 288.07 95.4531 288.07 94.7977C288.07 94.1423 285.995 93.5951 283.235 93.4677M283.235 95.7241V95.7229C283.166 95.7273 282.809 95.7487 282.015 95.7487C281.38 95.7487 280.934 95.7307 280.776 95.7225V95.7245C278.333 95.6163 276.51 95.1909 276.51 94.6819C276.51 94.1729 278.334 93.7481 280.776 93.6397V95.3007C280.936 95.3117 281.394 95.3387 282.025 95.3387C282.784 95.3387 283.165 95.3071 283.235 95.3007V93.6397C285.673 93.7483 287.493 94.1741 287.493 94.6813C287.493 95.1885 285.673 95.6145 283.235 95.7231" fill="white"/>
</g>
<path d="M310 104.8C315.523 104.8 320 100.322 320 94.7996C320 89.2767 315.523 84.7996 310 84.7996C304.477 84.7996 300 89.2767 300 94.7996C300 100.322 304.477 104.8 310 104.8Z" fill="#627EEA"/>
<path d="M310.311 87.2996V92.8433L314.997 94.9371L310.311 87.2996Z" fill="white" fill-opacity="0.602"/>
<path d="M310.311 87.2996L305.625 94.9371L310.311 92.8433V87.2996Z" fill="white" fill-opacity="0.9"/>
<path d="M310.311 98.5296V102.296L315 95.8096L310.311 98.5296Z" fill="white" fill-opacity="0.602"/>
<path d="M310.311 102.296V98.5289L305.625 95.8096L310.311 102.296Z" fill="white" fill-opacity="0.9"/>
<path d="M310.311 97.6574L314.997 94.9367L310.311 92.8442V97.6574Z" fill="white" fill-opacity="0.2"/>
<path d="M305.625 94.9367L310.311 97.6574V92.8442L305.625 94.9367Z" fill="white" fill-opacity="0.602"/>
<g clip-path="url(#clip3_26_906)">
<path d="M338 104.8C343.523 104.8 348 100.322 348 94.7996C348 89.2767 343.523 84.7996 338 84.7996C332.477 84.7996 328 89.2767 328 94.7996C328 100.322 332.477 104.8 338 104.8Z" fill="#6FBCF0"/>
<path fill-rule="evenodd" clip-rule="evenodd" d="M333.681 99.4899C334.582 101.052 336.201 101.989 338.003 101.989C339.805 101.989 341.423 101.052 342.324 99.4899C343.225 97.9273 343.225 96.0621 342.324 94.4996L338.523 87.9115C338.291 87.5103 337.714 87.5103 337.482 87.9115L333.681 94.4996C332.773 96.0621 332.773 97.9273 333.681 99.4899ZM336.933 91.0436L337.742 89.6359C337.855 89.4389 338.15 89.4389 338.263 89.6359L341.381 95.0415C341.951 96.034 342.064 97.1812 341.705 98.237C341.67 98.0681 341.613 97.8921 341.543 97.7162C341.114 96.6252 340.135 95.7876 338.643 95.2245C337.616 94.8374 336.961 94.2603 336.701 93.5212C336.363 92.564 336.722 91.5223 336.933 91.0436ZM335.546 93.4367L334.624 95.0415C333.92 96.2662 333.92 97.7232 334.624 98.9479C335.328 100.173 336.595 100.898 338.003 100.898C338.939 100.898 339.812 100.574 340.501 100.004C340.593 99.7785 340.867 98.955 340.522 98.1033C340.206 97.315 339.446 96.6885 338.256 96.2381C336.919 95.7313 336.046 94.936 335.666 93.8802C335.617 93.7324 335.581 93.5846 335.546 93.4367Z" fill="white"/>
</g>
<path d="M261.08 136.8V129.527H265.469V130.308H261.961V132.765H265.242V133.547H261.961V136.018H265.526V136.8H261.08ZM268.548 136.927C268.202 136.927 267.889 136.862 267.607 136.732C267.325 136.6 267.101 136.409 266.936 136.16C266.77 135.909 266.687 135.606 266.687 135.251C266.687 134.939 266.749 134.685 266.872 134.491C266.995 134.295 267.159 134.141 267.365 134.03C267.571 133.918 267.799 133.836 268.047 133.781C268.298 133.724 268.55 133.679 268.804 133.646C269.135 133.604 269.404 133.572 269.61 133.55C269.818 133.527 269.97 133.488 270.064 133.433C270.161 133.379 270.21 133.284 270.21 133.149V133.121C270.21 132.77 270.114 132.498 269.922 132.304C269.733 132.11 269.445 132.013 269.059 132.013C268.659 132.013 268.346 132.1 268.118 132.275C267.891 132.451 267.731 132.638 267.639 132.836L266.843 132.552C266.985 132.221 267.175 131.963 267.412 131.778C267.651 131.591 267.911 131.461 268.193 131.388C268.477 131.312 268.756 131.274 269.031 131.274C269.206 131.274 269.407 131.295 269.635 131.338C269.864 131.378 270.086 131.462 270.299 131.59C270.514 131.718 270.693 131.911 270.835 132.169C270.977 132.427 271.048 132.773 271.048 133.206V136.8H270.21V136.061H270.167C270.11 136.179 270.016 136.306 269.883 136.441C269.751 136.576 269.574 136.691 269.354 136.785C269.134 136.88 268.865 136.927 268.548 136.927ZM268.676 136.175C269.007 136.175 269.287 136.109 269.514 135.979C269.743 135.849 269.916 135.681 270.032 135.475C270.151 135.269 270.21 135.052 270.21 134.825V134.058C270.174 134.101 270.096 134.14 269.975 134.175C269.857 134.208 269.72 134.238 269.564 134.264C269.41 134.288 269.259 134.309 269.113 134.328C268.968 134.345 268.851 134.359 268.761 134.371C268.543 134.399 268.34 134.445 268.15 134.509C267.963 134.571 267.812 134.664 267.696 134.79C267.582 134.913 267.525 135.081 267.525 135.294C267.525 135.585 267.633 135.805 267.848 135.954C268.066 136.101 268.342 136.175 268.676 136.175ZM272.578 136.8V131.345H273.387V132.169H273.444C273.544 131.899 273.723 131.68 273.984 131.512C274.244 131.344 274.538 131.26 274.865 131.26C274.926 131.26 275.003 131.261 275.095 131.263C275.188 131.266 275.258 131.269 275.305 131.274V132.126C275.276 132.119 275.211 132.109 275.11 132.094C275.01 132.078 274.905 132.069 274.794 132.069C274.528 132.069 274.292 132.125 274.083 132.236C273.877 132.345 273.714 132.497 273.593 132.691C273.475 132.883 273.416 133.102 273.416 133.348V136.8H272.578ZM277.136 133.518V136.8H276.298V131.345H277.108V132.197H277.179C277.307 131.92 277.501 131.698 277.761 131.53C278.022 131.359 278.358 131.274 278.77 131.274C279.139 131.274 279.462 131.35 279.739 131.501C280.016 131.65 280.232 131.878 280.386 132.183C280.54 132.486 280.616 132.87 280.616 133.334V136.8H279.778V133.39C279.778 132.962 279.667 132.628 279.445 132.389C279.222 132.148 278.917 132.027 278.528 132.027C278.261 132.027 278.022 132.085 277.811 132.201C277.603 132.317 277.438 132.486 277.317 132.709C277.197 132.931 277.136 133.201 277.136 133.518ZM285.372 136.8H284.449L287.119 129.527H288.029L290.699 136.8H289.776L287.602 130.677H287.546L285.372 136.8ZM285.713 133.959H289.435V134.74H285.713V133.959ZM291.832 129.527H292.883L295.355 135.564H295.44L297.911 129.527H298.963V136.8H298.139V131.274H298.068L295.795 136.8H294.999L292.727 131.274H292.656V136.8H291.832V129.527ZM300.728 129.527H301.779L304.251 135.564H304.336L306.808 129.527H307.859V136.8H307.035V131.274H306.964L304.691 136.8H303.896L301.623 131.274H301.552V136.8H300.728V129.527ZM314.753 131.345V132.055H311.812V131.345H314.753ZM312.693 136.8V130.592C312.693 130.28 312.766 130.019 312.913 129.811C313.06 129.603 313.251 129.446 313.485 129.342C313.719 129.238 313.967 129.186 314.227 129.186C314.433 129.186 314.601 129.202 314.731 129.236C314.862 129.269 314.959 129.3 315.023 129.328L314.781 130.052C314.738 130.038 314.679 130.02 314.604 129.999C314.53 129.978 314.433 129.967 314.312 129.967C314.035 129.967 313.835 130.037 313.712 130.177C313.591 130.316 313.531 130.521 313.531 130.791V136.8H312.693ZM317.99 136.913C317.464 136.913 317.011 136.797 316.629 136.565C316.251 136.331 315.958 136.004 315.752 135.585C315.549 135.164 315.447 134.674 315.447 134.115C315.447 133.556 315.549 133.064 315.752 132.638C315.958 132.209 316.245 131.875 316.612 131.636C316.981 131.395 317.412 131.274 317.904 131.274C318.188 131.274 318.469 131.321 318.746 131.416C319.023 131.511 319.275 131.665 319.502 131.878C319.73 132.088 319.911 132.368 320.046 132.716C320.181 133.064 320.248 133.492 320.248 134.001V134.356H316.044V133.632H319.396C319.396 133.324 319.334 133.05 319.211 132.808C319.09 132.567 318.918 132.376 318.693 132.236C318.47 132.097 318.207 132.027 317.904 132.027C317.57 132.027 317.282 132.11 317.038 132.275C316.796 132.439 316.61 132.652 316.48 132.915C316.35 133.177 316.285 133.459 316.285 133.76V134.243C316.285 134.655 316.356 135.004 316.498 135.29C316.642 135.574 316.843 135.791 317.098 135.94C317.354 136.087 317.651 136.16 317.99 136.16C318.21 136.16 318.409 136.13 318.586 136.068C318.766 136.004 318.921 135.909 319.051 135.784C319.182 135.656 319.282 135.497 319.353 135.308L320.163 135.535C320.078 135.81 319.934 136.051 319.733 136.26C319.532 136.466 319.283 136.627 318.987 136.743C318.691 136.856 318.359 136.913 317.99 136.913ZM323.81 136.913C323.284 136.913 322.831 136.797 322.45 136.565C322.071 136.331 321.779 136.004 321.573 135.585C321.369 135.164 321.267 134.674 321.267 134.115C321.267 133.556 321.369 133.064 321.573 132.638C321.779 132.209 322.065 131.875 322.432 131.636C322.801 131.395 323.232 131.274 323.725 131.274C324.009 131.274 324.289 131.321 324.566 131.416C324.843 131.511 325.095 131.665 325.323 131.878C325.55 132.088 325.731 132.368 325.866 132.716C326.001 133.064 326.068 133.492 326.068 134.001V134.356H321.864V133.632H325.216C325.216 133.324 325.155 133.05 325.031 132.808C324.911 132.567 324.738 132.376 324.513 132.236C324.29 132.097 324.028 132.027 323.725 132.027C323.391 132.027 323.102 132.11 322.858 132.275C322.617 132.439 322.431 132.652 322.301 132.915C322.17 133.177 322.105 133.459 322.105 133.76V134.243C322.105 134.655 322.176 135.004 322.318 135.29C322.463 135.574 322.663 135.791 322.919 135.94C323.174 136.087 323.471 136.16 323.81 136.16C324.03 136.16 324.229 136.13 324.406 136.068C324.586 136.004 324.741 135.909 324.872 135.784C325.002 135.656 325.102 135.497 325.173 135.308L325.983 135.535C325.898 135.81 325.755 136.051 325.553 136.26C325.352 136.466 325.104 136.627 324.808 136.743C324.512 136.856 324.179 136.913 323.81 136.913ZM331.207 132.567L330.454 132.78C330.407 132.654 330.337 132.532 330.244 132.414C330.155 132.293 330.031 132.194 329.875 132.116C329.719 132.037 329.519 131.998 329.275 131.998C328.941 131.998 328.663 132.075 328.441 132.229C328.22 132.381 328.11 132.574 328.11 132.808C328.11 133.016 328.186 133.181 328.338 133.302C328.489 133.422 328.726 133.523 329.048 133.604L329.857 133.802C330.345 133.921 330.709 134.102 330.948 134.346C331.187 134.587 331.306 134.899 331.306 135.28C331.306 135.592 331.216 135.872 331.036 136.118C330.859 136.364 330.61 136.558 330.291 136.7C329.971 136.842 329.599 136.913 329.176 136.913C328.619 136.913 328.159 136.792 327.794 136.551C327.43 136.31 327.199 135.957 327.102 135.493L327.897 135.294C327.973 135.587 328.116 135.808 328.327 135.954C328.54 136.101 328.818 136.175 329.161 136.175C329.552 136.175 329.862 136.092 330.092 135.926C330.324 135.758 330.44 135.557 330.44 135.322C330.44 135.133 330.374 134.974 330.241 134.846C330.108 134.716 329.905 134.619 329.63 134.555L328.721 134.342C328.222 134.224 327.855 134.04 327.62 133.792C327.388 133.541 327.272 133.227 327.272 132.851C327.272 132.543 327.359 132.271 327.531 132.034C327.707 131.797 327.945 131.611 328.245 131.476C328.548 131.341 328.892 131.274 329.275 131.274C329.815 131.274 330.239 131.392 330.546 131.629C330.856 131.866 331.077 132.178 331.207 132.567Z" fill="#7D7D7D"/>
<rect x="503" y="28" width="162" height="127" rx="14" fill="#838282" fill-opacity="0.1"/>
<g clip-path="url(#clip4_26_906)">
<path d="M614.051 55.5162C612.507 55.5162 611.134 54.3985 610.781 52.8553H619.951C619.951 52.8553 620 52.2962 620 52.0984C620 48.8231 617.332 46.1577 614.053 46.1577C610.773 46.1577 608.105 48.8225 608.105 52.0984C608.105 55.3743 610.758 57.9772 614.053 57.9772C617.347 57.9772 619.27 55.5533 619.75 53.7985H616.955C616.955 53.7985 616.066 55.5162 614.051 55.5162ZM614.053 48.6175C615.534 48.6175 616.819 49.5944 617.259 51.0503H610.846C611.285 49.5944 612.571 48.6175 614.053 48.6175Z" fill="white"/>
<path d="M579.059 57.9772C575.779 57.9772 573.207 55.34 573.207 52.0984C573.207 48.8568 575.875 46.1577 579.154 46.1577C582.434 46.1577 585.102 48.9275 585.102 52.0669C585.102 53.4045 585.102 57.6827 585.102 57.6827H582.793V55.8086L582.624 55.7644C582.218 56.76 580.745 57.9772 579.058 57.9772H579.059ZM579.154 48.6175C577.302 48.6175 575.795 50.1707 575.795 52.0802C575.795 53.9897 577.302 55.5168 579.154 55.5168C581.007 55.5168 582.514 53.9753 582.514 52.0802C582.514 50.185 581.007 48.6175 579.154 48.6175Z" fill="white"/>
<path d="M591.69 57.9772C588.411 57.9772 585.839 55.34 585.839 52.0984C585.839 48.8568 588.507 46.1577 591.786 46.1577C595.065 46.1577 597.733 48.9275 597.733 52.0669C597.733 53.4045 597.733 57.6827 597.733 57.6827H595.424V55.8086L595.256 55.7644C594.85 56.76 593.376 57.9772 591.69 57.9772H591.69ZM591.786 48.6175C589.934 48.6175 588.427 50.1707 588.427 52.0802C588.427 53.9897 589.933 55.5168 591.786 55.5168C593.639 55.5168 595.146 53.9753 595.146 52.0802C595.146 50.185 593.639 48.6175 591.786 48.6175Z" fill="white"/>
<path d="M601.609 57.6814L596.87 46.4531H599.463L602.937 54.7243L606.411 46.4531H609.003L604.264 57.6814H601.609Z" fill="white"/>
<path d="M556.431 57.9598C557.72 57.9598 558.766 56.9156 558.766 55.6276C558.766 54.3396 557.72 53.2954 556.431 53.2954C555.141 53.2954 554.096 54.3396 554.096 55.6276C554.096 56.9156 555.141 57.9598 556.431 57.9598Z" fill="white"/>
<path d="M562.534 57.9598C563.824 57.9598 564.869 56.9156 564.869 55.6276C564.869 54.3396 563.824 53.2954 562.534 53.2954C561.244 53.2954 560.199 54.3396 560.199 55.6276C560.199 56.9156 561.244 57.9598 562.534 57.9598Z" fill="white"/>
<path d="M559.479 46C553.139 46 547.998 51.2318 548 57.6836H550.932C550.932 52.8485 554.728 48.9283 559.479 48.9283C564.229 48.9283 568.025 52.8485 568.025 57.6836H570.957C570.958 51.2318 565.818 46 559.479 46Z" fill="white"/>
</g>
<rect x="524" y="75" width="120" height="36" rx="8" fill="#A1A1A1" fill-opacity="0.1"/>
<g clip-path="url(#clip5_26_906)">
<path d="M542 83H542C536.477 83 532 87.4772 532 93C532 98.5228 536.477 103 542 103H542C547.523 103 552 98.5228 552 93C552 87.4772 547.523 83 542 83Z" fill="#141416"/>
<path d="M543.786 95.1229C540.478 96.1151 537.743 97.5624 536.03 99.2581L535.954 99.3334C536.41 99.7639 536.909 100.149 537.449 100.476L537.565 100.334C538.033 99.7639 538.534 99.2126 539.056 98.6929C540.457 97.2981 542.061 96.0906 543.787 95.1211L543.786 95.1229Z" fill="#F5F5F5"/>
<path d="M533.25 93.6528C533.382 95.422 534.04 97.0443 535.072 98.3638L535.119 98.3165C536.179 97.2718 537.56 96.3215 539.225 95.4938C540.684 94.7675 542.36 94.1445 544.166 93.6528H533.25Z" fill="#F5F5F5"/>
<path d="M539.981 86.3815C542.94 89.3267 546.664 91.2745 550.749 92.013C550.256 87.6467 546.536 84.25 542.015 84.25C540.821 84.25 539.684 84.488 538.645 84.9167C539.067 85.4242 539.517 85.9177 539.981 86.3815Z" fill="#F5F5F5"/>
<path d="M536.03 86.7422C537.743 88.4397 540.478 89.8852 543.786 90.8792C542.059 89.9079 540.456 88.7022 539.054 87.3074C538.534 86.7894 538.033 86.2382 537.563 85.6659L537.447 85.5242C536.907 85.8514 536.408 86.2364 535.954 86.6669L536.03 86.7422Z" fill="#F5F5F5"/>
<path d="M539.981 99.6187C539.515 100.082 539.065 100.576 538.645 101.083C539.682 101.512 540.821 101.75 542.015 101.75C546.536 101.75 550.256 98.3535 550.75 93.9854C546.666 94.7239 542.942 96.6717 539.983 99.617L539.981 99.6187Z" fill="#F5F5F5"/>
<path d="M539.225 90.5062C537.56 89.6785 536.179 88.7282 535.119 87.6835L535.072 87.6362C534.04 88.9557 533.382 90.578 533.25 92.3472H544.164C542.358 91.8555 540.684 91.2325 539.223 90.5045L539.225 90.5062Z" fill="#F5F5F5"/>
</g>
<g clip-path="url(#clip6_26_906)">
<path d="M570 83C575.523 83 580 87.4774 580 93C580 98.5226 575.522 103 570 103C564.478 103 560 98.5238 560 93C560 87.4762 564.477 83 570 83Z" fill="#53AE94"/>
<path d="M571.234 91.6678V90.1802H574.636V87.9136H565.373V90.1802H568.775V91.6666C566.01 91.7936 563.931 92.3412 563.931 92.9972C563.931 93.6532 566.011 94.2008 568.775 94.3286V99.0936H571.235V94.3282C573.995 94.2008 576.07 93.6536 576.07 92.9982C576.07 92.3428 573.995 91.7956 571.235 91.6682M571.235 93.9246V93.9234C571.166 93.9278 570.809 93.9492 570.015 93.9492C569.38 93.9492 568.934 93.9312 568.776 93.923V93.925C566.333 93.8168 564.51 93.3914 564.51 92.8824C564.51 92.3734 566.334 91.9486 568.776 91.8402V93.5012C568.936 93.5122 569.394 93.5392 570.025 93.5392C570.784 93.5392 571.165 93.5076 571.235 93.5012V91.8402C573.673 91.9488 575.493 92.3746 575.493 92.8818C575.493 93.389 573.673 93.815 571.235 93.9236" fill="white"/>
</g>
<path d="M598 103C603.523 103 608 98.5228 608 93C608 87.4772 603.523 83 598 83C592.477 83 588 87.4772 588 93C588 98.5228 592.477 103 598 103Z" fill="#627EEA"/>
<path d="M598.311 85.5V91.0437L602.997 93.1375L598.311 85.5Z" fill="white" fill-opacity="0.602"/>
<path d="M598.311 85.5L593.625 93.1375L598.311 91.0437V85.5Z" fill="white" fill-opacity="0.9"/>
<path d="M598.311 96.73V100.497L603 94.01L598.311 96.73Z" fill="white" fill-opacity="0.602"/>
<path d="M598.311 100.497V96.7294L593.625 94.01L598.311 100.497Z" fill="white" fill-opacity="0.9"/>
<path d="M598.311 95.8578L602.997 93.1372L598.311 91.0447V95.8578Z" fill="white" fill-opacity="0.2"/>
<path d="M593.625 93.1372L598.311 95.8578V91.0447L593.625 93.1372Z" fill="white" fill-opacity="0.602"/>
<g clip-path="url(#clip7_26_906)">
<path d="M626 103C631.523 103 636 98.5228 636 93C636 87.4772 631.523 83 626 83C620.477 83 616 87.4772 616 93C616 98.5228 620.477 103 626 103Z" fill="#6FBCF0"/>
<path fill-rule="evenodd" clip-rule="evenodd" d="M621.681 97.6903C622.582 99.2529 624.201 100.189 626.003 100.189C627.805 100.189 629.423 99.2529 630.324 97.6903C631.225 96.1278 631.225 94.2626 630.324 92.7L626.523 86.1119C626.291 85.7107 625.714 85.7107 625.482 86.1119L621.681 92.7C620.773 94.2626 620.773 96.1278 621.681 97.6903ZM624.933 89.2441L625.742 87.8364C625.855 87.6393 626.15 87.6393 626.263 87.8364L629.381 93.242C629.951 94.2344 630.064 95.3817 629.705 96.4375C629.67 96.2685 629.613 96.0926 629.543 95.9166C629.114 94.8256 628.135 93.9881 626.643 93.425C625.616 93.0379 624.961 92.4607 624.701 91.7216C624.363 90.7644 624.722 89.7227 624.933 89.2441ZM623.546 91.6372L622.624 93.242C621.92 94.4667 621.92 95.9237 622.624 97.1484C623.328 98.3731 624.595 99.098 626.003 99.098C626.939 99.098 627.812 98.7743 628.501 98.2041C628.593 97.9789 628.867 97.1554 628.522 96.3037C628.206 95.5154 627.446 94.889 626.256 94.4385C624.919 93.9317 624.046 93.1364 623.666 92.0806C623.617 91.9328 623.581 91.785 623.546 91.6372Z" fill="white"/>
</g>
<path d="M543.02 141V133.727H547.41V134.509H543.901V136.966H547.182V137.747H543.901V140.219H547.466V141H543.02ZM550.488 141.128C550.143 141.128 549.829 141.063 549.547 140.933C549.266 140.8 549.042 140.609 548.876 140.361C548.71 140.11 548.628 139.807 548.628 139.452C548.628 139.139 548.689 138.886 548.812 138.692C548.935 138.495 549.1 138.341 549.306 138.23C549.512 138.119 549.739 138.036 549.988 137.982C550.239 137.925 550.491 137.88 550.744 137.847C551.075 137.804 551.344 137.772 551.55 137.751C551.758 137.727 551.91 137.688 552.005 137.634C552.102 137.579 552.15 137.484 552.15 137.349V137.321C552.15 136.971 552.054 136.698 551.863 136.504C551.673 136.31 551.386 136.213 551 136.213C550.6 136.213 550.286 136.301 550.059 136.476C549.831 136.651 549.672 136.838 549.579 137.037L548.784 136.753C548.926 136.421 549.115 136.163 549.352 135.979C549.591 135.792 549.852 135.661 550.133 135.588C550.417 135.512 550.697 135.474 550.971 135.474C551.147 135.474 551.348 135.496 551.575 135.538C551.805 135.579 552.026 135.663 552.239 135.79C552.455 135.918 552.633 136.111 552.775 136.369C552.917 136.627 552.988 136.973 552.988 137.406V141H552.15V140.261H552.108C552.051 140.38 551.956 140.506 551.824 140.641C551.691 140.776 551.515 140.891 551.294 140.986C551.074 141.08 550.806 141.128 550.488 141.128ZM550.616 140.375C550.948 140.375 551.227 140.31 551.454 140.18C551.684 140.049 551.857 139.881 551.973 139.675C552.091 139.469 552.15 139.253 552.15 139.026V138.259C552.115 138.301 552.037 138.34 551.916 138.376C551.798 138.409 551.66 138.438 551.504 138.464C551.35 138.488 551.2 138.509 551.053 138.528C550.909 138.545 550.791 138.559 550.701 138.571C550.484 138.599 550.28 138.646 550.091 138.71C549.904 138.771 549.752 138.865 549.636 138.99C549.522 139.113 549.466 139.281 549.466 139.494C549.466 139.786 549.573 140.006 549.789 140.155C550.007 140.302 550.282 140.375 550.616 140.375ZM554.518 141V135.545H555.328V136.369H555.384C555.484 136.099 555.664 135.88 555.924 135.712C556.185 135.544 556.478 135.46 556.805 135.46C556.867 135.46 556.943 135.461 557.036 135.464C557.128 135.466 557.198 135.47 557.245 135.474V136.327C557.217 136.32 557.152 136.309 557.05 136.295C556.951 136.278 556.845 136.27 556.734 136.27C556.469 136.27 556.232 136.326 556.024 136.437C555.818 136.546 555.654 136.697 555.534 136.891C555.415 137.083 555.356 137.302 555.356 137.548V141H554.518ZM559.077 137.719V141H558.239V135.545H559.048V136.398H559.119C559.247 136.121 559.441 135.898 559.702 135.73C559.962 135.56 560.298 135.474 560.71 135.474C561.08 135.474 561.403 135.55 561.68 135.702C561.957 135.851 562.172 136.078 562.326 136.384C562.48 136.687 562.557 137.07 562.557 137.534V141H561.719V137.591C561.719 137.162 561.608 136.829 561.385 136.589C561.162 136.348 560.857 136.227 560.469 136.227C560.201 136.227 559.962 136.285 559.752 136.401C559.543 136.517 559.379 136.687 559.258 136.909C559.137 137.132 559.077 137.402 559.077 137.719ZM567.739 133.727V141H566.901V133.727H567.739ZM571.561 141.114C571.035 141.114 570.582 140.998 570.201 140.766C569.822 140.531 569.53 140.205 569.324 139.786C569.12 139.364 569.018 138.874 569.018 138.315C569.018 137.757 569.12 137.264 569.324 136.838C569.53 136.41 569.816 136.076 570.183 135.837C570.552 135.595 570.983 135.474 571.476 135.474C571.76 135.474 572.04 135.522 572.317 135.616C572.594 135.711 572.846 135.865 573.074 136.078C573.301 136.289 573.482 136.568 573.617 136.916C573.752 137.264 573.819 137.693 573.819 138.202V138.557H569.615V137.832H572.967C572.967 137.525 572.906 137.25 572.782 137.009C572.662 136.767 572.489 136.576 572.264 136.437C572.041 136.297 571.779 136.227 571.476 136.227C571.142 136.227 570.853 136.31 570.609 136.476C570.368 136.639 570.182 136.852 570.052 137.115C569.921 137.378 569.856 137.66 569.856 137.96V138.443C569.856 138.855 569.927 139.204 570.069 139.491C570.214 139.775 570.414 139.991 570.669 140.141C570.925 140.287 571.222 140.361 571.561 140.361C571.781 140.361 571.98 140.33 572.157 140.268C572.337 140.205 572.492 140.11 572.623 139.984C572.753 139.857 572.853 139.698 572.924 139.509L573.734 139.736C573.649 140.01 573.506 140.252 573.304 140.46C573.103 140.666 572.855 140.827 572.559 140.943C572.263 141.057 571.93 141.114 571.561 141.114ZM575.932 137.719V141H575.094V135.545H575.904V136.398H575.975C576.103 136.121 576.297 135.898 576.557 135.73C576.818 135.56 577.154 135.474 577.566 135.474C577.935 135.474 578.258 135.55 578.535 135.702C578.812 135.851 579.028 136.078 579.182 136.384C579.335 136.687 579.412 137.07 579.412 137.534V141H578.574V137.591C578.574 137.162 578.463 136.829 578.241 136.589C578.018 136.348 577.713 136.227 577.324 136.227C577.057 136.227 576.818 136.285 576.607 136.401C576.399 136.517 576.234 136.687 576.113 136.909C575.993 137.132 575.932 137.402 575.932 137.719ZM583.003 141.114C582.549 141.114 582.148 140.999 581.8 140.769C581.452 140.537 581.179 140.21 580.983 139.789C580.786 139.365 580.688 138.865 580.688 138.287C580.688 137.714 580.786 137.217 580.983 136.795C581.179 136.374 581.453 136.049 581.803 135.819C582.154 135.589 582.558 135.474 583.018 135.474C583.373 135.474 583.653 135.534 583.859 135.652C584.068 135.768 584.226 135.901 584.335 136.05C584.446 136.196 584.533 136.317 584.594 136.412H584.665V133.727H585.503V141H584.694V140.162H584.594C584.533 140.261 584.445 140.387 584.332 140.538C584.218 140.687 584.056 140.821 583.845 140.94C583.634 141.056 583.354 141.114 583.003 141.114ZM583.117 140.361C583.453 140.361 583.737 140.273 583.969 140.098C584.201 139.92 584.378 139.675 584.498 139.363C584.619 139.048 584.68 138.685 584.68 138.273C584.68 137.866 584.62 137.509 584.502 137.204C584.384 136.896 584.208 136.657 583.976 136.487C583.744 136.314 583.458 136.227 583.117 136.227C582.762 136.227 582.466 136.318 582.229 136.501C581.995 136.681 581.819 136.926 581.7 137.236C581.584 137.544 581.526 137.889 581.526 138.273C581.526 138.661 581.585 139.014 581.704 139.331C581.824 139.646 582.002 139.897 582.236 140.084C582.473 140.268 582.767 140.361 583.117 140.361ZM587.155 141V135.545H587.993V141H587.155ZM587.581 134.636C587.418 134.636 587.277 134.581 587.158 134.469C587.042 134.358 586.984 134.224 586.984 134.068C586.984 133.912 587.042 133.778 587.158 133.667C587.277 133.556 587.418 133.5 587.581 133.5C587.744 133.5 587.884 133.556 588 133.667C588.118 133.778 588.177 133.912 588.177 134.068C588.177 134.224 588.118 134.358 588 134.469C587.884 134.581 587.744 134.636 587.581 134.636ZM590.366 137.719V141H589.528V135.545H590.337V136.398H590.408C590.536 136.121 590.73 135.898 590.991 135.73C591.251 135.56 591.587 135.474 591.999 135.474C592.369 135.474 592.692 135.55 592.969 135.702C593.246 135.851 593.461 136.078 593.615 136.384C593.769 136.687 593.846 137.07 593.846 137.534V141H593.008V137.591C593.008 137.162 592.897 136.829 592.674 136.589C592.452 136.348 592.146 136.227 591.758 136.227C591.49 136.227 591.251 136.285 591.041 136.401C590.832 136.517 590.668 136.687 590.547 136.909C590.426 137.132 590.366 137.402 590.366 137.719ZM597.579 143.159C597.174 143.159 596.826 143.107 596.535 143.003C596.244 142.901 596.001 142.766 595.807 142.598C595.615 142.432 595.463 142.255 595.349 142.065L596.017 141.597C596.092 141.696 596.188 141.81 596.304 141.938C596.42 142.068 596.579 142.18 596.78 142.275C596.984 142.372 597.25 142.42 597.579 142.42C598.019 142.42 598.383 142.314 598.669 142.101C598.956 141.888 599.099 141.554 599.099 141.099V139.991H599.028C598.966 140.091 598.879 140.214 598.765 140.361C598.654 140.505 598.493 140.634 598.282 140.748C598.074 140.859 597.792 140.915 597.437 140.915C596.997 140.915 596.601 140.811 596.251 140.602C595.903 140.394 595.627 140.091 595.424 139.693C595.222 139.295 595.122 138.812 595.122 138.244C595.122 137.686 595.22 137.199 595.416 136.785C595.613 136.368 595.886 136.046 596.237 135.819C596.587 135.589 596.992 135.474 597.451 135.474C597.806 135.474 598.088 135.534 598.296 135.652C598.507 135.768 598.668 135.901 598.779 136.05C598.893 136.196 598.981 136.317 599.042 136.412H599.127V135.545H599.937V141.156C599.937 141.625 599.831 142.006 599.617 142.3C599.407 142.596 599.123 142.812 598.765 142.95C598.41 143.089 598.015 143.159 597.579 143.159ZM597.551 140.162C597.887 140.162 598.171 140.085 598.403 139.931C598.635 139.777 598.811 139.556 598.932 139.267C599.053 138.978 599.113 138.633 599.113 138.23C599.113 137.837 599.054 137.49 598.936 137.19C598.817 136.889 598.642 136.653 598.41 136.483C598.178 136.312 597.892 136.227 597.551 136.227C597.196 136.227 596.9 136.317 596.663 136.497C596.429 136.677 596.252 136.919 596.134 137.222C596.018 137.525 595.96 137.861 595.96 138.23C595.96 138.609 596.019 138.944 596.137 139.235C596.258 139.524 596.436 139.751 596.67 139.917C596.907 140.08 597.2 140.162 597.551 140.162ZM604.823 143.045C604.681 143.045 604.555 143.034 604.443 143.01C604.332 142.989 604.255 142.967 604.213 142.946L604.426 142.207C604.629 142.259 604.809 142.278 604.965 142.264C605.122 142.25 605.26 142.18 605.381 142.055C605.504 141.932 605.617 141.732 605.718 141.455L605.875 141.028L603.858 135.545H604.767L606.272 139.892H606.329L607.835 135.545H608.744L606.429 141.795C606.324 142.077 606.195 142.31 606.041 142.495C605.888 142.682 605.709 142.821 605.505 142.911C605.304 143 605.077 143.045 604.823 143.045ZM609.85 141V135.545H610.688V141H609.85ZM610.276 134.636C610.113 134.636 609.972 134.581 609.854 134.469C609.738 134.358 609.68 134.224 609.68 134.068C609.68 133.912 609.738 133.778 609.854 133.667C609.972 133.556 610.113 133.5 610.276 133.5C610.44 133.5 610.579 133.556 610.695 133.667C610.814 133.778 610.873 133.912 610.873 134.068C610.873 134.224 610.814 134.358 610.695 134.469C610.579 134.581 610.44 134.636 610.276 134.636ZM614.51 141.114C613.984 141.114 613.531 140.998 613.15 140.766C612.771 140.531 612.479 140.205 612.273 139.786C612.069 139.364 611.967 138.874 611.967 138.315C611.967 137.757 612.069 137.264 612.273 136.838C612.479 136.41 612.765 136.076 613.132 135.837C613.502 135.595 613.932 135.474 614.425 135.474C614.709 135.474 614.989 135.522 615.266 135.616C615.543 135.711 615.796 135.865 616.023 136.078C616.25 136.289 616.431 136.568 616.566 136.916C616.701 137.264 616.769 137.693 616.769 138.202V138.557H612.564V137.832H615.916C615.916 137.525 615.855 137.25 615.732 137.009C615.611 136.767 615.438 136.576 615.213 136.437C614.991 136.297 614.728 136.227 614.425 136.227C614.091 136.227 613.802 136.31 613.558 136.476C613.317 136.639 613.131 136.852 613.001 137.115C612.871 137.378 612.805 137.66 612.805 137.96V138.443C612.805 138.855 612.877 139.204 613.019 139.491C613.163 139.775 613.363 139.991 613.619 140.141C613.874 140.287 614.171 140.361 614.51 140.361C614.73 140.361 614.929 140.33 615.107 140.268C615.287 140.205 615.442 140.11 615.572 139.984C615.702 139.857 615.803 139.698 615.874 139.509L616.683 139.736C616.598 140.01 616.455 140.252 616.254 140.46C616.052 140.666 615.804 140.827 615.508 140.943C615.212 141.057 614.879 141.114 614.51 141.114ZM618.881 133.727V141H618.043V133.727H618.881ZM622.476 141.114C622.022 141.114 621.62 140.999 621.272 140.769C620.924 140.537 620.652 140.21 620.456 139.789C620.259 139.365 620.161 138.865 620.161 138.287C620.161 137.714 620.259 137.217 620.456 136.795C620.652 136.374 620.925 136.049 621.276 135.819C621.626 135.589 622.031 135.474 622.49 135.474C622.845 135.474 623.126 135.534 623.332 135.652C623.54 135.768 623.699 135.901 623.808 136.05C623.919 136.196 624.005 136.317 624.067 136.412H624.138V133.727H624.976V141H624.166V140.162H624.067C624.005 140.261 623.918 140.387 623.804 140.538C623.691 140.687 623.528 140.821 623.318 140.94C623.107 141.056 622.826 141.114 622.476 141.114ZM622.59 140.361C622.926 140.361 623.21 140.273 623.442 140.098C623.674 139.92 623.85 139.675 623.971 139.363C624.092 139.048 624.152 138.685 624.152 138.273C624.152 137.866 624.093 137.509 623.975 137.204C623.856 136.896 623.681 136.657 623.449 136.487C623.217 136.314 622.931 136.227 622.59 136.227C622.235 136.227 621.939 136.318 621.702 136.501C621.468 136.681 621.291 136.926 621.173 137.236C621.057 137.544 620.999 137.889 620.999 138.273C620.999 138.661 621.058 139.014 621.176 139.331C621.297 139.646 621.475 139.897 621.709 140.084C621.946 140.268 622.239 140.361 622.59 140.361Z" fill="#7D7D7D"/>
<path d="M108.564 72H106.32V64.7273H108.664C109.369 64.7273 109.973 64.8729 110.475 65.1641C110.977 65.4529 111.362 65.8684 111.629 66.4105C111.897 66.9503 112.03 67.5966 112.03 68.3494C112.03 69.107 111.895 69.7592 111.626 70.3061C111.356 70.8506 110.963 71.2696 110.447 71.5632C109.93 71.8544 109.303 72 108.564 72ZM107.201 71.2188H108.508C109.109 71.2188 109.607 71.1027 110.003 70.8707C110.398 70.6387 110.693 70.3085 110.887 69.88C111.081 69.4515 111.178 68.9413 111.178 68.3494C111.178 67.7623 111.082 67.2569 110.89 66.8331C110.699 66.407 110.412 66.0803 110.031 65.853C109.65 65.6233 109.175 65.5085 108.607 65.5085H107.201V71.2188ZM115.681 72.1136C115.155 72.1136 114.702 71.9976 114.321 71.7656C113.942 71.5312 113.65 71.2045 113.444 70.7855C113.24 70.3641 113.138 69.8741 113.138 69.3153C113.138 68.7566 113.24 68.2642 113.444 67.8381C113.65 67.4096 113.936 67.0758 114.303 66.8366C114.672 66.5952 115.103 66.4744 115.596 66.4744C115.88 66.4744 116.16 66.5218 116.437 66.6165C116.714 66.7112 116.966 66.8651 117.194 67.0781C117.421 67.2888 117.602 67.5682 117.737 67.9162C117.872 68.2642 117.939 68.6927 117.939 69.2017V69.5568H113.735V68.8324H117.087C117.087 68.5246 117.026 68.25 116.903 68.0085C116.782 67.767 116.609 67.5765 116.384 67.4368C116.162 67.2971 115.899 67.2273 115.596 67.2273C115.262 67.2273 114.973 67.3101 114.729 67.4759C114.488 67.6392 114.302 67.8523 114.172 68.1151C114.041 68.3778 113.976 68.6596 113.976 68.9602V69.4432C113.976 69.8551 114.047 70.2043 114.189 70.4908C114.334 70.7749 114.534 70.9915 114.79 71.1406C115.045 71.2874 115.342 71.3608 115.681 71.3608C115.901 71.3608 116.1 71.33 116.278 71.2685C116.457 71.2045 116.613 71.1098 116.743 70.9844C116.873 70.8565 116.974 70.6979 117.045 70.5085L117.854 70.7358C117.769 71.0104 117.626 71.2519 117.425 71.4602C117.223 71.6662 116.975 71.8272 116.679 71.9432C116.383 72.0568 116.05 72.1136 115.681 72.1136ZM119.214 74.0455V66.5455H120.024V67.4119H120.123C120.185 67.3172 120.27 67.1965 120.379 67.0497C120.49 66.9006 120.649 66.768 120.855 66.652C121.063 66.5336 121.345 66.4744 121.7 66.4744C122.159 66.4744 122.564 66.5893 122.915 66.8189C123.265 67.0485 123.538 67.3741 123.735 67.7955C123.931 68.2169 124.03 68.714 124.03 69.2869C124.03 69.8646 123.931 70.3653 123.735 70.7891C123.538 71.2105 123.266 71.5372 122.918 71.7692C122.57 71.9988 122.169 72.1136 121.714 72.1136C121.364 72.1136 121.083 72.0556 120.873 71.9396C120.662 71.8213 120.5 71.6875 120.386 71.5384C120.273 71.3868 120.185 71.2614 120.123 71.1619H120.052V74.0455H119.214ZM120.038 69.2727C120.038 69.6847 120.099 70.0481 120.219 70.3629C120.34 70.6754 120.516 70.9205 120.748 71.098C120.98 71.2732 121.265 71.3608 121.601 71.3608C121.951 71.3608 122.243 71.2685 122.478 71.0838C122.715 70.8968 122.892 70.6458 123.01 70.331C123.131 70.0137 123.192 69.661 123.192 69.2727C123.192 68.8892 123.132 68.5436 123.014 68.2358C122.898 67.9257 122.722 67.6806 122.485 67.5007C122.251 67.3184 121.956 67.2273 121.601 67.2273C121.26 67.2273 120.973 67.3137 120.741 67.4865C120.509 67.657 120.334 67.8961 120.216 68.2038C120.097 68.5092 120.038 68.8655 120.038 69.2727ZM127.524 72.1136C127.032 72.1136 126.599 71.9964 126.228 71.7621C125.858 71.5277 125.57 71.1998 125.361 70.7784C125.155 70.357 125.052 69.8646 125.052 69.3011C125.052 68.733 125.155 68.237 125.361 67.8132C125.57 67.3894 125.858 67.0604 126.228 66.826C126.599 66.5916 127.032 66.4744 127.524 66.4744C128.016 66.4744 128.447 66.5916 128.817 66.826C129.188 67.0604 129.477 67.3894 129.683 67.8132C129.891 68.237 129.996 68.733 129.996 69.3011C129.996 69.8646 129.891 70.357 129.683 70.7784C129.477 71.1998 129.188 71.5277 128.817 71.7621C128.447 71.9964 128.016 72.1136 127.524 72.1136ZM127.524 71.3608C127.898 71.3608 128.206 71.2649 128.447 71.0732C128.689 70.8814 128.867 70.6293 128.983 70.3168C129.099 70.0043 129.157 69.6657 129.157 69.3011C129.157 68.9366 129.099 68.5968 128.983 68.282C128.867 67.9671 128.689 67.7126 128.447 67.5185C128.206 67.3243 127.898 67.2273 127.524 67.2273C127.15 67.2273 126.842 67.3243 126.601 67.5185C126.359 67.7126 126.18 67.9671 126.064 68.282C125.948 68.5968 125.89 68.9366 125.89 69.3011C125.89 69.6657 125.948 70.0043 126.064 70.3168C126.18 70.6293 126.359 70.8814 126.601 71.0732C126.842 71.2649 127.15 71.3608 127.524 71.3608ZM135.138 67.767L134.386 67.9801C134.338 67.8546 134.268 67.7327 134.176 67.6143C134.086 67.4936 133.963 67.3942 133.807 67.3161C133.651 67.2379 133.451 67.1989 133.207 67.1989C132.873 67.1989 132.595 67.2758 132.372 67.4297C132.152 67.5812 132.042 67.7741 132.042 68.0085C132.042 68.2169 132.118 68.3814 132.269 68.5021C132.421 68.6229 132.657 68.7235 132.979 68.804L133.789 69.0028C134.277 69.1212 134.64 69.3023 134.879 69.5462C135.118 69.7876 135.238 70.099 135.238 70.4801C135.238 70.7926 135.148 71.072 134.968 71.3182C134.79 71.5644 134.542 71.7585 134.222 71.9006C133.903 72.0426 133.531 72.1136 133.107 72.1136C132.551 72.1136 132.09 71.9929 131.726 71.7514C131.361 71.5099 131.13 71.1572 131.033 70.6932L131.829 70.4943C131.905 70.7879 132.048 71.008 132.259 71.1548C132.472 71.3016 132.75 71.375 133.093 71.375C133.484 71.375 133.794 71.2921 134.023 71.1264C134.255 70.9583 134.371 70.7571 134.371 70.5227C134.371 70.3333 134.305 70.1747 134.173 70.0469C134.04 69.9167 133.836 69.8196 133.562 69.7557L132.653 69.5426C132.153 69.4242 131.786 69.2408 131.552 68.9922C131.32 68.7412 131.204 68.4276 131.204 68.0511C131.204 67.7434 131.29 67.4711 131.463 67.2344C131.638 66.9976 131.876 66.8118 132.177 66.6768C132.48 66.5419 132.823 66.4744 133.207 66.4744C133.746 66.4744 134.17 66.5928 134.478 66.8295C134.788 67.0663 135.008 67.3788 135.138 67.767ZM136.499 72V66.5455H137.338V72H136.499ZM136.926 65.6364C136.762 65.6364 136.621 65.5807 136.503 65.4695C136.387 65.3582 136.329 65.2244 136.329 65.0682C136.329 64.9119 136.387 64.7782 136.503 64.6669C136.621 64.5556 136.762 64.5 136.926 64.5C137.089 64.5 137.229 64.5556 137.345 64.6669C137.463 64.7782 137.522 64.9119 137.522 65.0682C137.522 65.2244 137.463 65.3582 137.345 65.4695C137.229 65.5807 137.089 65.6364 136.926 65.6364ZM141.245 66.5455V67.2557H138.418V66.5455H141.245ZM139.242 65.2386H140.08V70.4375C140.08 70.6742 140.114 70.8518 140.183 70.9702C140.254 71.0862 140.344 71.1643 140.453 71.2045C140.564 71.2424 140.681 71.2614 140.804 71.2614C140.897 71.2614 140.972 71.2566 141.032 71.2472C141.091 71.2353 141.138 71.2259 141.174 71.2188L141.344 71.9716C141.287 71.9929 141.208 72.0142 141.106 72.0355C141.004 72.0592 140.875 72.071 140.719 72.071C140.482 72.071 140.25 72.0201 140.023 71.9183C139.798 71.8165 139.611 71.6615 139.462 71.4531C139.315 71.2448 139.242 70.982 139.242 70.6648V65.2386ZM149.409 66.5455C149.366 66.1856 149.193 65.9062 148.89 65.7074C148.587 65.5085 148.216 65.4091 147.775 65.4091C147.453 65.4091 147.172 65.4612 146.93 65.5653C146.691 65.6695 146.504 65.8127 146.369 65.995C146.236 66.1773 146.17 66.3845 146.17 66.6165C146.17 66.8106 146.216 66.9775 146.309 67.1172C146.403 67.2545 146.524 67.3693 146.671 67.4616C146.818 67.5516 146.971 67.6262 147.132 67.6854C147.293 67.7422 147.441 67.7884 147.576 67.8239L148.315 68.0227C148.504 68.0724 148.715 68.1411 148.947 68.2287C149.181 68.3163 149.405 68.4358 149.618 68.5874C149.834 68.7365 150.011 68.9283 150.151 69.1626C150.291 69.397 150.36 69.6847 150.36 70.0256C150.36 70.4186 150.257 70.7737 150.051 71.0909C149.848 71.4081 149.55 71.6603 149.157 71.8473C148.766 72.0343 148.291 72.1278 147.733 72.1278C147.212 72.1278 146.761 72.0438 146.38 71.8757C146.001 71.7076 145.703 71.4732 145.485 71.1726C145.269 70.8719 145.147 70.5227 145.119 70.125H146.028C146.052 70.3996 146.144 70.6269 146.305 70.8068C146.468 70.9844 146.674 71.117 146.923 71.2045C147.174 71.2898 147.444 71.3324 147.733 71.3324C148.069 71.3324 148.371 71.2779 148.638 71.169C148.906 71.0578 149.118 70.9039 149.274 70.7074C149.43 70.5085 149.508 70.2765 149.508 70.0114C149.508 69.7699 149.441 69.5734 149.306 69.4219C149.171 69.2704 148.993 69.1473 148.773 69.0526C148.553 68.9579 148.315 68.875 148.059 68.804L147.164 68.5483C146.596 68.3849 146.146 68.1518 145.815 67.8487C145.484 67.5457 145.318 67.1491 145.318 66.6591C145.318 66.2519 145.428 65.8968 145.648 65.5938C145.871 65.2884 146.169 65.0516 146.543 64.8835C146.919 64.7131 147.34 64.6278 147.804 64.6278C148.272 64.6278 148.689 64.7119 149.054 64.88C149.418 65.0457 149.707 65.273 149.92 65.5618C150.136 65.8506 150.249 66.1785 150.261 66.5455H149.409ZM155.132 69.7699V66.5455H155.97V72H155.132V71.0767H155.075C154.948 71.3537 154.749 71.5893 154.479 71.7834C154.209 71.9751 153.868 72.071 153.456 72.071C153.115 72.071 152.812 71.9964 152.547 71.8473C152.282 71.6958 152.074 71.4685 151.922 71.1655C151.771 70.8601 151.695 70.4754 151.695 70.0114V66.5455H152.533V69.9545C152.533 70.3523 152.644 70.6695 152.867 70.9062C153.092 71.143 153.378 71.2614 153.726 71.2614C153.934 71.2614 154.146 71.2081 154.362 71.1016C154.579 70.995 154.762 70.8317 154.909 70.6115C155.058 70.3913 155.132 70.1108 155.132 69.7699ZM157.505 74.0455V66.5455H158.315V67.4119H158.414C158.476 67.3172 158.561 67.1965 158.67 67.0497C158.781 66.9006 158.94 66.768 159.146 66.652C159.354 66.5336 159.636 66.4744 159.991 66.4744C160.45 66.4744 160.855 66.5893 161.206 66.8189C161.556 67.0485 161.829 67.3741 162.026 67.7955C162.222 68.2169 162.321 68.714 162.321 69.2869C162.321 69.8646 162.222 70.3653 162.026 70.7891C161.829 71.2105 161.557 71.5372 161.209 71.7692C160.861 71.9988 160.46 72.1136 160.005 72.1136C159.655 72.1136 159.374 72.0556 159.164 71.9396C158.953 71.8213 158.791 71.6875 158.677 71.5384C158.564 71.3868 158.476 71.2614 158.414 71.1619H158.343V74.0455H157.505ZM158.329 69.2727C158.329 69.6847 158.39 70.0481 158.51 70.3629C158.631 70.6754 158.807 70.9205 159.039 71.098C159.271 71.2732 159.556 71.3608 159.892 71.3608C160.242 71.3608 160.534 71.2685 160.769 71.0838C161.006 70.8968 161.183 70.6458 161.301 70.331C161.422 70.0137 161.483 69.661 161.483 69.2727C161.483 68.8892 161.423 68.5436 161.305 68.2358C161.189 67.9257 161.013 67.6806 160.776 67.5007C160.542 67.3184 160.247 67.2273 159.892 67.2273C159.551 67.2273 159.264 67.3137 159.032 67.4865C158.8 67.657 158.625 67.8961 158.507 68.2038C158.388 68.5092 158.329 68.8655 158.329 69.2727ZM163.599 74.0455V66.5455H164.409V67.4119H164.508C164.57 67.3172 164.655 67.1965 164.764 67.0497C164.875 66.9006 165.034 66.768 165.24 66.652C165.448 66.5336 165.73 66.4744 166.085 66.4744C166.544 66.4744 166.949 66.5893 167.299 66.8189C167.65 67.0485 167.923 67.3741 168.12 67.7955C168.316 68.2169 168.414 68.714 168.414 69.2869C168.414 69.8646 168.316 70.3653 168.12 70.7891C167.923 71.2105 167.651 71.5372 167.303 71.7692C166.955 71.9988 166.554 72.1136 166.099 72.1136C165.749 72.1136 165.468 72.0556 165.257 71.9396C165.047 71.8213 164.885 71.6875 164.771 71.5384C164.657 71.3868 164.57 71.2614 164.508 71.1619H164.437V74.0455H163.599ZM164.423 69.2727C164.423 69.6847 164.483 70.0481 164.604 70.3629C164.725 70.6754 164.901 70.9205 165.133 71.098C165.365 71.2732 165.649 71.3608 165.985 71.3608C166.336 71.3608 166.628 71.2685 166.863 71.0838C167.099 70.8968 167.277 70.6458 167.395 70.331C167.516 70.0137 167.576 69.661 167.576 69.2727C167.576 68.8892 167.517 68.5436 167.399 68.2358C167.283 67.9257 167.106 67.6806 166.87 67.5007C166.635 67.3184 166.341 67.2273 165.985 67.2273C165.645 67.2273 165.358 67.3137 165.126 67.4865C164.894 67.657 164.719 67.8961 164.6 68.2038C164.482 68.5092 164.423 68.8655 164.423 69.2727ZM171.909 72.1136C171.416 72.1136 170.984 71.9964 170.613 71.7621C170.243 71.5277 169.954 71.1998 169.746 70.7784C169.54 70.357 169.437 69.8646 169.437 69.3011C169.437 68.733 169.54 68.237 169.746 67.8132C169.954 67.3894 170.243 67.0604 170.613 66.826C170.984 66.5916 171.416 66.4744 171.909 66.4744C172.401 66.4744 172.832 66.5916 173.201 66.826C173.573 67.0604 173.862 67.3894 174.068 67.8132C174.276 68.237 174.38 68.733 174.38 69.3011C174.38 69.8646 174.276 70.357 174.068 70.7784C173.862 71.1998 173.573 71.5277 173.201 71.7621C172.832 71.9964 172.401 72.1136 171.909 72.1136ZM171.909 71.3608C172.283 71.3608 172.591 71.2649 172.832 71.0732C173.074 70.8814 173.252 70.6293 173.368 70.3168C173.484 70.0043 173.542 69.6657 173.542 69.3011C173.542 68.9366 173.484 68.5968 173.368 68.282C173.252 67.9671 173.074 67.7126 172.832 67.5185C172.591 67.3243 172.283 67.2273 171.909 67.2273C171.535 67.2273 171.227 67.3243 170.985 67.5185C170.744 67.7126 170.565 67.9671 170.449 68.282C170.333 68.5968 170.275 68.9366 170.275 69.3011C170.275 69.6657 170.333 70.0043 170.449 70.3168C170.565 70.6293 170.744 70.8814 170.985 71.0732C171.227 71.2649 171.535 71.3608 171.909 71.3608ZM175.66 72V66.5455H176.469V67.3693H176.526C176.626 67.0994 176.805 66.8804 177.066 66.7124C177.326 66.5443 177.62 66.4602 177.947 66.4602C178.008 66.4602 178.085 66.4614 178.177 66.4638C178.27 66.4661 178.34 66.4697 178.387 66.4744V67.3267C178.358 67.3196 178.293 67.3089 178.192 67.2947C178.092 67.2782 177.987 67.2699 177.876 67.2699C177.61 67.2699 177.374 67.3255 177.165 67.4368C176.959 67.5457 176.796 67.6972 176.675 67.8913C176.557 68.0831 176.498 68.3021 176.498 68.5483V72H175.66ZM182.094 66.5455V67.2557H179.268V66.5455H182.094ZM180.091 65.2386H180.93V70.4375C180.93 70.6742 180.964 70.8518 181.032 70.9702C181.104 71.0862 181.193 71.1643 181.302 71.2045C181.414 71.2424 181.531 71.2614 181.654 71.2614C181.746 71.2614 181.822 71.2566 181.881 71.2472C181.94 71.2353 181.988 71.2259 182.023 71.2188L182.194 71.9716C182.137 71.9929 182.058 72.0142 181.956 72.0355C181.854 72.0592 181.725 72.071 181.569 72.071C181.332 72.071 181.1 72.0201 180.873 71.9183C180.648 71.8165 180.461 71.6615 180.312 71.4531C180.165 71.2448 180.091 70.982 180.091 70.6648V65.2386ZM185.583 72.1136C185.058 72.1136 184.604 71.9976 184.223 71.7656C183.844 71.5312 183.552 71.2045 183.346 70.7855C183.142 70.3641 183.041 69.8741 183.041 69.3153C183.041 68.7566 183.142 68.2642 183.346 67.8381C183.552 67.4096 183.838 67.0758 184.205 66.8366C184.575 66.5952 185.006 66.4744 185.498 66.4744C185.782 66.4744 186.063 66.5218 186.34 66.6165C186.617 66.7112 186.869 66.8651 187.096 67.0781C187.323 67.2888 187.504 67.5682 187.639 67.9162C187.774 68.2642 187.842 68.6927 187.842 69.2017V69.5568H183.637V68.8324H186.99C186.99 68.5246 186.928 68.25 186.805 68.0085C186.684 67.767 186.511 67.5765 186.286 67.4368C186.064 67.2971 185.801 67.2273 185.498 67.2273C185.164 67.2273 184.875 67.3101 184.632 67.4759C184.39 67.6392 184.204 67.8523 184.074 68.1151C183.944 68.3778 183.879 68.6596 183.879 68.9602V69.4432C183.879 69.8551 183.95 70.2043 184.092 70.4908C184.236 70.7749 184.436 70.9915 184.692 71.1406C184.948 71.2874 185.245 71.3608 185.583 71.3608C185.803 71.3608 186.002 71.33 186.18 71.2685C186.36 71.2045 186.515 71.1098 186.645 70.9844C186.775 70.8565 186.876 70.6979 186.947 70.5085L187.757 70.7358C187.671 71.0104 187.528 71.2519 187.327 71.4602C187.126 71.6662 186.877 71.8272 186.581 71.9432C186.285 72.0568 185.953 72.1136 185.583 72.1136ZM191.176 72.1136C190.722 72.1136 190.32 71.9988 189.972 71.7692C189.624 71.5372 189.352 71.2105 189.156 70.7891C188.959 70.3653 188.861 69.8646 188.861 69.2869C188.861 68.714 188.959 68.2169 189.156 67.7955C189.352 67.3741 189.626 67.0485 189.976 66.8189C190.326 66.5893 190.731 66.4744 191.191 66.4744C191.546 66.4744 191.826 66.5336 192.032 66.652C192.24 66.768 192.399 66.9006 192.508 67.0497C192.619 67.1965 192.706 67.3172 192.767 67.4119H192.838V64.7273H193.676V72H192.867V71.1619H192.767C192.706 71.2614 192.618 71.3868 192.504 71.5384C192.391 71.6875 192.229 71.8213 192.018 71.9396C191.807 72.0556 191.527 72.1136 191.176 72.1136ZM191.29 71.3608C191.626 71.3608 191.91 71.2732 192.142 71.098C192.374 70.9205 192.551 70.6754 192.671 70.3629C192.792 70.0481 192.852 69.6847 192.852 69.2727C192.852 68.8655 192.793 68.5092 192.675 68.2038C192.557 67.8961 192.381 67.657 192.149 67.4865C191.917 67.3137 191.631 67.2273 191.29 67.2273C190.935 67.2273 190.639 67.3184 190.402 67.5007C190.168 67.6806 189.991 67.9257 189.873 68.2358C189.757 68.5436 189.699 68.8892 189.699 69.2727C189.699 69.661 189.758 70.0137 189.877 70.331C189.997 70.6458 190.175 70.8968 190.409 71.0838C190.646 71.2685 190.94 71.3608 191.29 71.3608ZM133.632 77.5085V76.7273H139.087V77.5085H136.8V84H135.919V77.5085H133.632ZM141.757 84.1136C141.265 84.1136 140.833 83.9964 140.461 83.7621C140.092 83.5277 139.803 83.1998 139.595 82.7784C139.389 82.357 139.286 81.8646 139.286 81.3011C139.286 80.733 139.389 80.237 139.595 79.8132C139.803 79.3894 140.092 79.0604 140.461 78.826C140.833 78.5916 141.265 78.4744 141.757 78.4744C142.25 78.4744 142.681 78.5916 143.05 78.826C143.422 79.0604 143.71 79.3894 143.916 79.8132C144.125 80.237 144.229 80.733 144.229 81.3011C144.229 81.8646 144.125 82.357 143.916 82.7784C143.71 83.1998 143.422 83.5277 143.05 83.7621C142.681 83.9964 142.25 84.1136 141.757 84.1136ZM141.757 83.3608C142.131 83.3608 142.439 83.2649 142.681 83.0732C142.922 82.8814 143.101 82.6293 143.217 82.3168C143.333 82.0043 143.391 81.6657 143.391 81.3011C143.391 80.9366 143.333 80.5968 143.217 80.282C143.101 79.9671 142.922 79.7126 142.681 79.5185C142.439 79.3243 142.131 79.2273 141.757 79.2273C141.383 79.2273 141.076 79.3243 140.834 79.5185C140.593 79.7126 140.414 79.9671 140.298 80.282C140.182 80.5968 140.124 80.9366 140.124 81.3011C140.124 81.6657 140.182 82.0043 140.298 82.3168C140.414 82.6293 140.593 82.8814 140.834 83.0732C141.076 83.2649 141.383 83.3608 141.757 83.3608ZM146.29 82.0114L146.275 80.9744H146.446L148.832 78.5455H149.869L147.326 81.1165H147.255L146.29 82.0114ZM145.508 84V76.7273H146.346V84H145.508ZM148.974 84L146.843 81.3011L147.44 80.7188L150.04 84H148.974ZM153.01 84.1136C152.484 84.1136 152.031 83.9976 151.65 83.7656C151.271 83.5312 150.979 83.2045 150.773 82.7855C150.569 82.3641 150.467 81.8741 150.467 81.3153C150.467 80.7566 150.569 80.2642 150.773 79.8381C150.979 79.4096 151.265 79.0758 151.632 78.8366C152.002 78.5952 152.432 78.4744 152.925 78.4744C153.209 78.4744 153.489 78.5218 153.766 78.6165C154.043 78.7112 154.296 78.8651 154.523 79.0781C154.75 79.2888 154.931 79.5682 155.066 79.9162C155.201 80.2642 155.269 80.6927 155.269 81.2017V81.5568H151.064V80.8324H154.416C154.416 80.5246 154.355 80.25 154.232 80.0085C154.111 79.767 153.938 79.5765 153.713 79.4368C153.491 79.2971 153.228 79.2273 152.925 79.2273C152.591 79.2273 152.302 79.3101 152.058 79.4759C151.817 79.6392 151.631 79.8523 151.501 80.1151C151.371 80.3778 151.305 80.6596 151.305 80.9602V81.4432C151.305 81.8551 151.377 82.2043 151.519 82.4908C151.663 82.7749 151.863 82.9915 152.119 83.1406C152.374 83.2874 152.671 83.3608 153.01 83.3608C153.23 83.3608 153.429 83.33 153.607 83.2685C153.787 83.2045 153.942 83.1098 154.072 82.9844C154.202 82.8565 154.303 82.6979 154.374 82.5085L155.183 82.7358C155.098 83.0104 154.955 83.2519 154.754 83.4602C154.552 83.6662 154.304 83.8272 154.008 83.9432C153.712 84.0568 153.379 84.1136 153.01 84.1136ZM157.381 80.7188V84H156.543V78.5455H157.353V79.3977H157.424C157.552 79.1207 157.746 78.8982 158.006 78.7301C158.267 78.5597 158.603 78.4744 159.015 78.4744C159.384 78.4744 159.707 78.5502 159.984 78.7017C160.261 78.8509 160.477 79.0781 160.631 79.3835C160.785 79.6866 160.862 80.0701 160.862 80.5341V84H160.024V80.5909C160.024 80.1624 159.912 79.8286 159.69 79.5895C159.467 79.348 159.162 79.2273 158.774 79.2273C158.506 79.2273 158.267 79.2853 158.056 79.4013C157.848 79.5173 157.683 79.6866 157.563 79.9091C157.442 80.1316 157.381 80.4015 157.381 80.7188ZM166.257 79.767L165.504 79.9801C165.456 79.8546 165.387 79.7327 165.294 79.6143C165.204 79.4936 165.081 79.3942 164.925 79.3161C164.769 79.2379 164.569 79.1989 164.325 79.1989C163.991 79.1989 163.713 79.2758 163.49 79.4297C163.27 79.5812 163.16 79.7741 163.16 80.0085C163.16 80.2169 163.236 80.3814 163.387 80.5021C163.539 80.6229 163.776 80.7235 164.098 80.804L164.907 81.0028C165.395 81.1212 165.758 81.3023 165.997 81.5462C166.237 81.7876 166.356 82.099 166.356 82.4801C166.356 82.7926 166.266 83.072 166.086 83.3182C165.909 83.5644 165.66 83.7585 165.34 83.9006C165.021 84.0426 164.649 84.1136 164.225 84.1136C163.669 84.1136 163.209 83.9929 162.844 83.7514C162.479 83.5099 162.249 83.1572 162.152 82.6932L162.947 82.4943C163.023 82.7879 163.166 83.008 163.377 83.1548C163.59 83.3016 163.868 83.375 164.211 83.375C164.602 83.375 164.912 83.2921 165.142 83.1264C165.374 82.9583 165.49 82.7571 165.49 82.5227C165.49 82.3333 165.423 82.1747 165.291 82.0469C165.158 81.9167 164.955 81.8196 164.68 81.7557L163.771 81.5426C163.271 81.4242 162.904 81.2408 162.67 80.9922C162.438 80.7412 162.322 80.4276 162.322 80.0511C162.322 79.7434 162.408 79.4711 162.581 79.2344C162.756 78.9976 162.994 78.8118 163.295 78.6768C163.598 78.5419 163.941 78.4744 164.325 78.4744C164.865 78.4744 165.288 78.5928 165.596 78.8295C165.906 79.0663 166.126 79.3788 166.257 79.767Z" fill="#7D7D7D"/>
<path d="M399.377 78V70.7273H403.738V71.5085H400.257V73.9659H403.411V74.7472H400.257V78H399.377ZM406.948 78.1136C406.455 78.1136 406.023 77.9964 405.652 77.7621C405.282 77.5277 404.993 77.1998 404.785 76.7784C404.579 76.357 404.476 75.8646 404.476 75.3011C404.476 74.733 404.579 74.237 404.785 73.8132C404.993 73.3894 405.282 73.0604 405.652 72.826C406.023 72.5916 406.455 72.4744 406.948 72.4744C407.44 72.4744 407.871 72.5916 408.24 72.826C408.612 73.0604 408.901 73.3894 409.107 73.8132C409.315 74.237 409.419 74.733 409.419 75.3011C409.419 75.8646 409.315 76.357 409.107 76.7784C408.901 77.1998 408.612 77.5277 408.24 77.7621C407.871 77.9964 407.44 78.1136 406.948 78.1136ZM406.948 77.3608C407.322 77.3608 407.63 77.2649 407.871 77.0732C408.113 76.8814 408.291 76.6293 408.407 76.3168C408.523 76.0043 408.581 75.6657 408.581 75.3011C408.581 74.9366 408.523 74.5968 408.407 74.282C408.291 73.9671 408.113 73.7126 407.871 73.5185C407.63 73.3243 407.322 73.2273 406.948 73.2273C406.574 73.2273 406.266 73.3243 406.025 73.5185C405.783 73.7126 405.604 73.9671 405.488 74.282C405.372 74.5968 405.314 74.9366 405.314 75.3011C405.314 75.6657 405.372 76.0043 405.488 76.3168C405.604 76.6293 405.783 76.8814 406.025 77.0732C406.266 77.2649 406.574 77.3608 406.948 77.3608ZM410.699 78V72.5455H411.508V73.3693H411.565C411.665 73.0994 411.845 72.8804 412.105 72.7124C412.365 72.5443 412.659 72.4602 412.986 72.4602C413.047 72.4602 413.124 72.4614 413.216 72.4638C413.309 72.4661 413.379 72.4697 413.426 72.4744V73.3267C413.398 73.3196 413.332 73.3089 413.231 73.2947C413.131 73.2782 413.026 73.2699 412.915 73.2699C412.649 73.2699 412.413 73.3255 412.204 73.4368C411.998 73.5457 411.835 73.6972 411.714 73.8913C411.596 74.0831 411.537 74.3021 411.537 74.5483V78H410.699ZM415.743 78L414.081 72.5455H414.962L416.141 76.7216H416.198L417.362 72.5455H418.257L419.408 76.7074H419.465L420.644 72.5455H421.524L419.862 78H419.039L417.845 73.8097H417.76L416.567 78H415.743ZM424.237 78.1278C423.892 78.1278 423.578 78.0627 423.296 77.9325C423.015 77.8 422.791 77.6094 422.625 77.3608C422.459 77.1098 422.377 76.8068 422.377 76.4517C422.377 76.1392 422.438 75.8859 422.561 75.6918C422.684 75.4953 422.849 75.3414 423.055 75.2301C423.261 75.1188 423.488 75.036 423.737 74.9815C423.988 74.9247 424.24 74.8797 424.493 74.8466C424.825 74.804 425.093 74.772 425.299 74.7507C425.508 74.727 425.659 74.688 425.754 74.6335C425.851 74.5791 425.899 74.4844 425.899 74.3494V74.321C425.899 73.9706 425.803 73.6984 425.612 73.5043C425.422 73.3101 425.135 73.2131 424.749 73.2131C424.349 73.2131 424.035 73.3007 423.808 73.4759C423.58 73.651 423.421 73.8381 423.328 74.0369L422.533 73.7528C422.675 73.4214 422.864 73.1634 423.101 72.9787C423.34 72.7917 423.601 72.6615 423.882 72.5881C424.166 72.5123 424.446 72.4744 424.72 72.4744C424.896 72.4744 425.097 72.4957 425.324 72.5384C425.554 72.5786 425.775 72.6626 425.988 72.7905C426.204 72.9183 426.382 73.1113 426.524 73.3693C426.666 73.6274 426.737 73.973 426.737 74.4062V78H425.899V77.2614H425.857C425.8 77.3797 425.705 77.5064 425.573 77.6413C425.44 77.7763 425.264 77.8911 425.044 77.9858C424.823 78.0805 424.555 78.1278 424.237 78.1278ZM424.365 77.375C424.697 77.375 424.976 77.3099 425.203 77.1797C425.433 77.0495 425.606 76.8814 425.722 76.6754C425.84 76.4695 425.899 76.2528 425.899 76.0256V75.2585C425.864 75.3011 425.786 75.3402 425.665 75.3757C425.547 75.4089 425.409 75.4384 425.253 75.4645C425.099 75.4882 424.949 75.5095 424.802 75.5284C424.658 75.545 424.54 75.5592 424.45 75.571C424.233 75.5994 424.029 75.6456 423.84 75.7095C423.653 75.7711 423.501 75.8646 423.385 75.9901C423.271 76.1132 423.215 76.2812 423.215 76.4943C423.215 76.7855 423.322 77.0057 423.538 77.1548C423.756 77.3016 424.031 77.375 424.365 77.375ZM428.267 78V72.5455H429.077V73.3693H429.134C429.233 73.0994 429.413 72.8804 429.673 72.7124C429.934 72.5443 430.227 72.4602 430.554 72.4602C430.616 72.4602 430.692 72.4614 430.785 72.4638C430.877 72.4661 430.947 72.4697 430.994 72.4744V73.3267C430.966 73.3196 430.901 73.3089 430.799 73.2947C430.7 73.2782 430.594 73.2699 430.483 73.2699C430.218 73.2699 429.981 73.3255 429.773 73.4368C429.567 73.5457 429.403 73.6972 429.283 73.8913C429.164 74.0831 429.105 74.3021 429.105 74.5483V78H428.267ZM433.881 78.1136C433.427 78.1136 433.026 77.9988 432.678 77.7692C432.33 77.5372 432.057 77.2105 431.861 76.7891C431.664 76.3653 431.566 75.8646 431.566 75.2869C431.566 74.714 431.664 74.2169 431.861 73.7955C432.057 73.3741 432.331 73.0485 432.681 72.8189C433.031 72.5893 433.436 72.4744 433.896 72.4744C434.251 72.4744 434.531 72.5336 434.737 72.652C434.946 72.768 435.104 72.9006 435.213 73.0497C435.324 73.1965 435.411 73.3172 435.472 73.4119H435.543V70.7273H436.381V78H435.572V77.1619H435.472C435.411 77.2614 435.323 77.3868 435.21 77.5384C435.096 77.6875 434.934 77.8213 434.723 77.9396C434.512 78.0556 434.232 78.1136 433.881 78.1136ZM433.995 77.3608C434.331 77.3608 434.615 77.2732 434.847 77.098C435.079 76.9205 435.256 76.6754 435.376 76.3629C435.497 76.0481 435.558 75.6847 435.558 75.2727C435.558 74.8655 435.498 74.5092 435.38 74.2038C435.262 73.8961 435.086 73.657 434.854 73.4865C434.622 73.3137 434.336 73.2273 433.995 73.2273C433.64 73.2273 433.344 73.3184 433.107 73.5007C432.873 73.6806 432.696 73.9257 432.578 74.2358C432.462 74.5436 432.404 74.8892 432.404 75.2727C432.404 75.661 432.463 76.0137 432.582 76.331C432.702 76.6458 432.88 76.8968 433.114 77.0838C433.351 77.2685 433.645 77.3608 433.995 77.3608ZM443.203 78H440.959V70.7273H443.303C444.008 70.7273 444.612 70.8729 445.114 71.1641C445.616 71.4529 446 71.8684 446.268 72.4105C446.535 72.9503 446.669 73.5966 446.669 74.3494C446.669 75.107 446.534 75.7592 446.264 76.3061C445.994 76.8506 445.601 77.2696 445.085 77.5632C444.569 77.8544 443.942 78 443.203 78ZM441.839 77.2188H443.146C443.748 77.2188 444.246 77.1027 444.641 76.8707C445.037 76.6387 445.331 76.3085 445.526 75.88C445.72 75.4515 445.817 74.9413 445.817 74.3494C445.817 73.7623 445.721 73.2569 445.529 72.8331C445.337 72.407 445.051 72.0803 444.67 71.853C444.289 71.6233 443.814 71.5085 443.246 71.5085H441.839V77.2188ZM450.32 78.1136C449.794 78.1136 449.341 77.9976 448.96 77.7656C448.581 77.5312 448.288 77.2045 448.082 76.7855C447.879 76.3641 447.777 75.8741 447.777 75.3153C447.777 74.7566 447.879 74.2642 448.082 73.8381C448.288 73.4096 448.575 73.0758 448.942 72.8366C449.311 72.5952 449.742 72.4744 450.234 72.4744C450.518 72.4744 450.799 72.5218 451.076 72.6165C451.353 72.7112 451.605 72.8651 451.832 73.0781C452.06 73.2888 452.241 73.5682 452.376 73.9162C452.511 74.2642 452.578 74.6927 452.578 75.2017V75.5568H448.374V74.8324H451.726C451.726 74.5246 451.664 74.25 451.541 74.0085C451.42 73.767 451.248 73.5765 451.023 73.4368C450.8 73.2971 450.537 73.2273 450.234 73.2273C449.901 73.2273 449.612 73.3101 449.368 73.4759C449.126 73.6392 448.941 73.8523 448.81 74.1151C448.68 74.3778 448.615 74.6596 448.615 74.9602V75.4432C448.615 75.8551 448.686 76.2043 448.828 76.4908C448.973 76.7749 449.173 76.9915 449.428 77.1406C449.684 77.2874 449.981 77.3608 450.32 77.3608C450.54 77.3608 450.739 77.33 450.916 77.2685C451.096 77.2045 451.251 77.1098 451.381 76.9844C451.512 76.8565 451.612 76.6979 451.683 76.5085L452.493 76.7358C452.408 77.0104 452.264 77.2519 452.063 77.4602C451.862 77.6662 451.613 77.8272 451.317 77.9432C451.022 78.0568 450.689 78.1136 450.32 78.1136ZM453.853 80.0455V72.5455H454.663V73.4119H454.762C454.824 73.3172 454.909 73.1965 455.018 73.0497C455.129 72.9006 455.288 72.768 455.494 72.652C455.702 72.5336 455.984 72.4744 456.339 72.4744C456.798 72.4744 457.203 72.5893 457.553 72.8189C457.904 73.0485 458.177 73.3741 458.374 73.7955C458.57 74.2169 458.668 74.714 458.668 75.2869C458.668 75.8646 458.57 76.3653 458.374 76.7891C458.177 77.2105 457.905 77.5372 457.557 77.7692C457.209 77.9988 456.808 78.1136 456.353 78.1136C456.003 78.1136 455.722 78.0556 455.511 77.9396C455.301 77.8213 455.138 77.6875 455.025 77.5384C454.911 77.3868 454.824 77.2614 454.762 77.1619H454.691V80.0455H453.853ZM454.677 75.2727C454.677 75.6847 454.737 76.0481 454.858 76.3629C454.979 76.6754 455.155 76.9205 455.387 77.098C455.619 77.2732 455.903 77.3608 456.239 77.3608C456.59 77.3608 456.882 77.2685 457.116 77.0838C457.353 76.8968 457.531 76.6458 457.649 76.331C457.77 76.0137 457.83 75.661 457.83 75.2727C457.83 74.8892 457.771 74.5436 457.653 74.2358C457.537 73.9257 457.36 73.6806 457.124 73.5007C456.889 73.3184 456.594 73.2273 456.239 73.2273C455.898 73.2273 455.612 73.3137 455.38 73.4865C455.148 73.657 454.973 73.8961 454.854 74.2038C454.736 74.5092 454.677 74.8655 454.677 75.2727ZM462.163 78.1136C461.67 78.1136 461.238 77.9964 460.866 77.7621C460.497 77.5277 460.208 77.1998 460 76.7784C459.794 76.357 459.691 75.8646 459.691 75.3011C459.691 74.733 459.794 74.237 460 73.8132C460.208 73.3894 460.497 73.0604 460.866 72.826C461.238 72.5916 461.67 72.4744 462.163 72.4744C462.655 72.4744 463.086 72.5916 463.455 72.826C463.827 73.0604 464.116 73.3894 464.322 73.8132C464.53 74.237 464.634 74.733 464.634 75.3011C464.634 75.8646 464.53 76.357 464.322 76.7784C464.116 77.1998 463.827 77.5277 463.455 77.7621C463.086 77.9964 462.655 78.1136 462.163 78.1136ZM462.163 77.3608C462.537 77.3608 462.844 77.2649 463.086 77.0732C463.327 76.8814 463.506 76.6293 463.622 76.3168C463.738 76.0043 463.796 75.6657 463.796 75.3011C463.796 74.9366 463.738 74.5968 463.622 74.282C463.506 73.9671 463.327 73.7126 463.086 73.5185C462.844 73.3243 462.537 73.2273 462.163 73.2273C461.789 73.2273 461.481 73.3243 461.239 73.5185C460.998 73.7126 460.819 73.9671 460.703 74.282C460.587 74.5968 460.529 74.9366 460.529 75.3011C460.529 75.6657 460.587 76.0043 460.703 76.3168C460.819 76.6293 460.998 76.8814 461.239 77.0732C461.481 77.2649 461.789 77.3608 462.163 77.3608ZM469.777 73.767L469.024 73.9801C468.977 73.8546 468.907 73.7327 468.815 73.6143C468.725 73.4936 468.602 73.3942 468.445 73.3161C468.289 73.2379 468.089 73.1989 467.845 73.1989C467.512 73.1989 467.233 73.2758 467.011 73.4297C466.791 73.5812 466.681 73.7741 466.681 74.0085C466.681 74.2169 466.756 74.3814 466.908 74.5021C467.059 74.6229 467.296 74.7235 467.618 74.804L468.428 75.0028C468.915 75.1212 469.279 75.3023 469.518 75.5462C469.757 75.7876 469.877 76.099 469.877 76.4801C469.877 76.7926 469.787 77.072 469.607 77.3182C469.429 77.5644 469.181 77.7585 468.861 77.9006C468.541 78.0426 468.17 78.1136 467.746 78.1136C467.19 78.1136 466.729 77.9929 466.365 77.7514C466 77.5099 465.769 77.1572 465.672 76.6932L466.468 76.4943C466.543 76.7879 466.686 77.008 466.897 77.1548C467.11 77.3016 467.388 77.375 467.732 77.375C468.122 77.375 468.432 77.2921 468.662 77.1264C468.894 76.9583 469.01 76.7571 469.01 76.5227C469.01 76.3333 468.944 76.1747 468.811 76.0469C468.679 75.9167 468.475 75.8196 468.2 75.7557L467.291 75.5426C466.792 75.4242 466.425 75.2408 466.191 74.9922C465.959 74.7412 465.843 74.4276 465.843 74.0511C465.843 73.7434 465.929 73.4711 466.102 73.2344C466.277 72.9976 466.515 72.8118 466.816 72.6768C467.119 72.5419 467.462 72.4744 467.845 72.4744C468.385 72.4744 468.809 72.5928 469.117 72.8295C469.427 73.0663 469.647 73.3788 469.777 73.767ZM471.138 78V72.5455H471.976V78H471.138ZM471.564 71.6364C471.401 71.6364 471.26 71.5807 471.142 71.4695C471.026 71.3582 470.968 71.2244 470.968 71.0682C470.968 70.9119 471.026 70.7782 471.142 70.6669C471.26 70.5556 471.401 70.5 471.564 70.5C471.728 70.5 471.867 70.5556 471.983 70.6669C472.102 70.7782 472.161 70.9119 472.161 71.0682C472.161 71.2244 472.102 71.3582 471.983 71.4695C471.867 71.5807 471.728 71.6364 471.564 71.6364ZM475.883 72.5455V73.2557H473.057V72.5455H475.883ZM473.881 71.2386H474.719V76.4375C474.719 76.6742 474.753 76.8518 474.822 76.9702C474.893 77.0862 474.983 77.1643 475.091 77.2045C475.203 77.2424 475.32 77.2614 475.443 77.2614C475.535 77.2614 475.611 77.2566 475.67 77.2472C475.729 77.2353 475.777 77.2259 475.812 77.2188L475.983 77.9716C475.926 77.9929 475.847 78.0142 475.745 78.0355C475.643 78.0592 475.514 78.071 475.358 78.071C475.121 78.071 474.889 78.0201 474.662 77.9183C474.437 77.8165 474.25 77.6615 474.101 77.4531C473.954 77.2448 473.881 76.982 473.881 76.6648V71.2386ZM480.91 73.767L480.157 73.9801C480.11 73.8546 480.04 73.7327 479.948 73.6143C479.858 73.4936 479.735 73.3942 479.578 73.3161C479.422 73.2379 479.222 73.1989 478.978 73.1989C478.644 73.1989 478.366 73.2758 478.144 73.4297C477.923 73.5812 477.813 73.7741 477.813 74.0085C477.813 74.2169 477.889 74.3814 478.041 74.5021C478.192 74.6229 478.429 74.7235 478.751 74.804L479.561 75.0028C480.048 75.1212 480.412 75.3023 480.651 75.5462C480.89 75.7876 481.009 76.099 481.009 76.4801C481.009 76.7926 480.919 77.072 480.74 77.3182C480.562 77.5644 480.313 77.7585 479.994 77.9006C479.674 78.0426 479.302 78.1136 478.879 78.1136C478.322 78.1136 477.862 77.9929 477.497 77.7514C477.133 77.5099 476.902 77.1572 476.805 76.6932L477.6 76.4943C477.676 76.7879 477.819 77.008 478.03 77.1548C478.243 77.3016 478.521 77.375 478.865 77.375C479.255 77.375 479.565 77.2921 479.795 77.1264C480.027 76.9583 480.143 76.7571 480.143 76.5227C480.143 76.3333 480.077 76.1747 479.944 76.0469C479.811 75.9167 479.608 75.8196 479.333 75.7557L478.424 75.5426C477.925 75.4242 477.558 75.2408 477.323 74.9922C477.091 74.7412 476.975 74.4276 476.975 74.0511C476.975 73.7434 477.062 73.4711 477.235 73.2344C477.41 72.9976 477.648 72.8118 477.948 72.6768C478.251 72.5419 478.595 72.4744 478.978 72.4744C479.518 72.4744 479.942 72.5928 480.249 72.8295C480.56 73.0663 480.78 73.3788 480.91 73.767Z" fill="#7D7D7D"/>
<path opacity="0.4" d="M107 91.4C106.669 91.4 106.4 91.6686 106.4 92C106.4 92.3314 106.669 92.6 107 92.6V92V91.4ZM193 92L187 88.5359V95.4641L193 92ZM107 92V92.6H187.6V92V91.4H107V92Z" fill="#7D7D7D"/>
<path opacity="0.4" d="M397 90.4C396.669 90.4 396.4 90.6686 396.4 91C396.4 91.3314 396.669 91.6 397 91.6V91V90.4ZM483 91L477 87.5359V94.4641L483 91ZM397 91V91.6H477.6V91V90.4H397V91Z" fill="#7D7D7D"/>
<path d="M586.166 161L586.166 171.848C586.166 178.476 580.794 183.848 574.166 183.848L306.166 183.848C299.539 183.848 294.166 178.476 294.166 171.848L294.166 161" stroke="url(#paint7_linear_26_906)" stroke-width="1.2" stroke-linejoin="round" stroke-dasharray="2.4 2.4"/>
<path d="M89.4 92.3333C90.3548 92.3333 91.2705 92.7021 91.9456 93.3585C92.6207 94.0148 93 94.9051 93 95.8333V96.6675C93 100.841 87.948 104 81 104C74.052 104 69 101.005 69 96.6675V95.8333C69 94.9051 69.3793 94.0148 70.0544 93.3585C70.7295 92.7021 71.6452 92.3333 72.6 92.3333H89.4ZM81 76C81.9455 76 82.8818 76.1811 83.7553 76.5328C84.6289 76.8846 85.4226 77.4002 86.0912 78.0503C86.7598 78.7003 87.2901 79.4719 87.6519 80.3212C88.0138 81.1705 88.2 82.0807 88.2 83C88.2 83.9193 88.0138 84.8295 87.6519 85.6788C87.2901 86.5281 86.7598 87.2997 86.0912 87.9497C85.4226 88.5998 84.6289 89.1154 83.7553 89.4672C82.8818 89.8189 81.9455 90 81 90C79.0904 90 77.2591 89.2625 75.9088 87.9497C74.5586 86.637 73.8 84.8565 73.8 83C73.8 81.1435 74.5586 79.363 75.9088 78.0503C77.2591 76.7375 79.0904 76 81 76Z" fill="#10778B"/>
<path d="M401.354 200H399.11V192.727H401.454C402.159 192.727 402.763 192.873 403.265 193.164C403.767 193.453 404.152 193.868 404.419 194.411C404.687 194.95 404.82 195.597 404.82 196.349C404.82 197.107 404.685 197.759 404.416 198.306C404.146 198.851 403.753 199.27 403.237 199.563C402.72 199.854 402.093 200 401.354 200ZM399.991 199.219H401.298C401.899 199.219 402.397 199.103 402.793 198.871C403.188 198.639 403.483 198.308 403.677 197.88C403.871 197.451 403.968 196.941 403.968 196.349C403.968 195.762 403.872 195.257 403.68 194.833C403.489 194.407 403.202 194.08 402.821 193.853C402.44 193.623 401.965 193.509 401.397 193.509H399.991V199.219ZM409.622 197.77V194.545H410.46V200H409.622V199.077H409.565C409.437 199.354 409.238 199.589 408.968 199.783C408.698 199.975 408.357 200.071 407.945 200.071C407.604 200.071 407.301 199.996 407.036 199.847C406.771 199.696 406.563 199.469 406.411 199.165C406.26 198.86 406.184 198.475 406.184 198.011V194.545H407.022V197.955C407.022 198.352 407.133 198.67 407.356 198.906C407.581 199.143 407.867 199.261 408.215 199.261C408.424 199.261 408.636 199.208 408.851 199.102C409.069 198.995 409.251 198.832 409.398 198.612C409.547 198.391 409.622 198.111 409.622 197.77ZM413.6 200.128C413.254 200.128 412.94 200.063 412.659 199.933C412.377 199.8 412.153 199.609 411.987 199.361C411.822 199.11 411.739 198.807 411.739 198.452C411.739 198.139 411.8 197.886 411.924 197.692C412.047 197.495 412.211 197.341 412.417 197.23C412.623 197.119 412.85 197.036 413.099 196.982C413.35 196.925 413.602 196.88 413.855 196.847C414.187 196.804 414.456 196.772 414.661 196.751C414.87 196.727 415.021 196.688 415.116 196.634C415.213 196.579 415.262 196.484 415.262 196.349V196.321C415.262 195.971 415.166 195.698 414.974 195.504C414.785 195.31 414.497 195.213 414.111 195.213C413.711 195.213 413.397 195.301 413.17 195.476C412.943 195.651 412.783 195.838 412.691 196.037L411.895 195.753C412.037 195.421 412.227 195.163 412.463 194.979C412.702 194.792 412.963 194.661 413.245 194.588C413.529 194.512 413.808 194.474 414.083 194.474C414.258 194.474 414.459 194.496 414.686 194.538C414.916 194.579 415.137 194.663 415.35 194.79C415.566 194.918 415.745 195.111 415.887 195.369C416.029 195.627 416.1 195.973 416.1 196.406V200H415.262V199.261H415.219C415.162 199.38 415.068 199.506 414.935 199.641C414.802 199.776 414.626 199.891 414.406 199.986C414.186 200.08 413.917 200.128 413.6 200.128ZM413.728 199.375C414.059 199.375 414.338 199.31 414.566 199.18C414.795 199.049 414.968 198.881 415.084 198.675C415.202 198.469 415.262 198.253 415.262 198.026V197.259C415.226 197.301 415.148 197.34 415.027 197.376C414.909 197.409 414.772 197.438 414.615 197.464C414.461 197.488 414.311 197.509 414.164 197.528C414.02 197.545 413.903 197.559 413.813 197.571C413.595 197.599 413.391 197.646 413.202 197.71C413.015 197.771 412.863 197.865 412.747 197.99C412.634 198.113 412.577 198.281 412.577 198.494C412.577 198.786 412.685 199.006 412.9 199.155C413.118 199.302 413.394 199.375 413.728 199.375ZM418.467 192.727V200H417.629V192.727H418.467ZM423.355 202.045C423.213 202.045 423.086 202.034 422.975 202.01C422.863 201.989 422.786 201.967 422.744 201.946L422.957 201.207C423.161 201.259 423.34 201.278 423.497 201.264C423.653 201.25 423.791 201.18 423.912 201.055C424.035 200.932 424.148 200.732 424.25 200.455L424.406 200.028L422.389 194.545H423.298L424.804 198.892H424.86L426.366 194.545H427.275L424.96 200.795C424.856 201.077 424.727 201.31 424.573 201.495C424.419 201.682 424.24 201.821 424.036 201.911C423.835 202 423.608 202.045 423.355 202.045ZM428.381 200V194.545H429.219V200H428.381ZM428.807 193.636C428.644 193.636 428.503 193.581 428.385 193.469C428.269 193.358 428.211 193.224 428.211 193.068C428.211 192.912 428.269 192.778 428.385 192.667C428.503 192.556 428.644 192.5 428.807 192.5C428.971 192.5 429.11 192.556 429.226 192.667C429.345 192.778 429.404 192.912 429.404 193.068C429.404 193.224 429.345 193.358 429.226 193.469C429.11 193.581 428.971 193.636 428.807 193.636ZM433.041 200.114C432.516 200.114 432.062 199.998 431.681 199.766C431.302 199.531 431.01 199.205 430.804 198.786C430.6 198.364 430.499 197.874 430.499 197.315C430.499 196.757 430.6 196.264 430.804 195.838C431.01 195.41 431.296 195.076 431.663 194.837C432.033 194.595 432.464 194.474 432.956 194.474C433.24 194.474 433.521 194.522 433.798 194.616C434.075 194.711 434.327 194.865 434.554 195.078C434.781 195.289 434.962 195.568 435.097 195.916C435.232 196.264 435.3 196.693 435.3 197.202V197.557H431.095V196.832H434.448C434.448 196.525 434.386 196.25 434.263 196.009C434.142 195.767 433.969 195.576 433.744 195.437C433.522 195.297 433.259 195.227 432.956 195.227C432.622 195.227 432.333 195.31 432.09 195.476C431.848 195.639 431.662 195.852 431.532 196.115C431.402 196.378 431.337 196.66 431.337 196.96V197.443C431.337 197.855 431.408 198.204 431.55 198.491C431.694 198.775 431.894 198.991 432.15 199.141C432.406 199.287 432.703 199.361 433.041 199.361C433.261 199.361 433.46 199.33 433.638 199.268C433.818 199.205 433.973 199.11 434.103 198.984C434.233 198.857 434.334 198.698 434.405 198.509L435.215 198.736C435.129 199.01 434.986 199.252 434.785 199.46C434.584 199.666 434.335 199.827 434.039 199.943C433.743 200.057 433.411 200.114 433.041 200.114ZM437.413 192.727V200H436.575V192.727H437.413ZM441.007 200.114C440.553 200.114 440.152 199.999 439.804 199.769C439.456 199.537 439.183 199.21 438.987 198.789C438.79 198.365 438.692 197.865 438.692 197.287C438.692 196.714 438.79 196.217 438.987 195.795C439.183 195.374 439.457 195.049 439.807 194.819C440.157 194.589 440.562 194.474 441.022 194.474C441.377 194.474 441.657 194.534 441.863 194.652C442.072 194.768 442.23 194.901 442.339 195.05C442.45 195.196 442.537 195.317 442.598 195.412H442.669V192.727H443.507V200H442.698V199.162H442.598C442.537 199.261 442.449 199.387 442.335 199.538C442.222 199.687 442.06 199.821 441.849 199.94C441.638 200.056 441.358 200.114 441.007 200.114ZM441.121 199.361C441.457 199.361 441.741 199.273 441.973 199.098C442.205 198.92 442.382 198.675 442.502 198.363C442.623 198.048 442.684 197.685 442.684 197.273C442.684 196.866 442.624 196.509 442.506 196.204C442.388 195.896 442.212 195.657 441.98 195.487C441.748 195.314 441.462 195.227 441.121 195.227C440.766 195.227 440.47 195.318 440.233 195.501C439.999 195.681 439.822 195.926 439.704 196.236C439.588 196.544 439.53 196.889 439.53 197.273C439.53 197.661 439.589 198.014 439.708 198.331C439.828 198.646 440.006 198.897 440.24 199.084C440.477 199.268 440.771 199.361 441.121 199.361ZM450.258 200.114C449.733 200.114 449.279 199.998 448.898 199.766C448.519 199.531 448.227 199.205 448.021 198.786C447.817 198.364 447.715 197.874 447.715 197.315C447.715 196.757 447.817 196.264 448.021 195.838C448.227 195.41 448.513 195.076 448.88 194.837C449.25 194.595 449.68 194.474 450.173 194.474C450.457 194.474 450.737 194.522 451.014 194.616C451.291 194.711 451.544 194.865 451.771 195.078C451.998 195.289 452.179 195.568 452.314 195.916C452.449 196.264 452.517 196.693 452.517 197.202V197.557H448.312V196.832H451.664C451.664 196.525 451.603 196.25 451.48 196.009C451.359 195.767 451.186 195.576 450.961 195.437C450.739 195.297 450.476 195.227 450.173 195.227C449.839 195.227 449.55 195.31 449.306 195.476C449.065 195.639 448.879 195.852 448.749 196.115C448.619 196.378 448.554 196.66 448.554 196.96V197.443C448.554 197.855 448.625 198.204 448.767 198.491C448.911 198.775 449.111 198.991 449.367 199.141C449.622 199.287 449.92 199.361 450.258 199.361C450.478 199.361 450.677 199.33 450.855 199.268C451.035 199.205 451.19 199.11 451.32 198.984C451.45 198.857 451.551 198.698 451.622 198.509L452.431 198.736C452.346 199.01 452.203 199.252 452.002 199.46C451.8 199.666 451.552 199.827 451.256 199.943C450.96 200.057 450.627 200.114 450.258 200.114ZM455.397 200.128C455.051 200.128 454.737 200.063 454.456 199.933C454.174 199.8 453.95 199.609 453.784 199.361C453.619 199.11 453.536 198.807 453.536 198.452C453.536 198.139 453.597 197.886 453.72 197.692C453.844 197.495 454.008 197.341 454.214 197.23C454.42 197.119 454.647 197.036 454.896 196.982C455.147 196.925 455.399 196.88 455.652 196.847C455.984 196.804 456.252 196.772 456.458 196.751C456.667 196.727 456.818 196.688 456.913 196.634C457.01 196.579 457.059 196.484 457.059 196.349V196.321C457.059 195.971 456.963 195.698 456.771 195.504C456.581 195.31 456.294 195.213 455.908 195.213C455.508 195.213 455.194 195.301 454.967 195.476C454.74 195.651 454.58 195.838 454.487 196.037L453.692 195.753C453.834 195.421 454.023 195.163 454.26 194.979C454.499 194.792 454.76 194.661 455.041 194.588C455.326 194.512 455.605 194.474 455.88 194.474C456.055 194.474 456.256 194.496 456.483 194.538C456.713 194.579 456.934 194.663 457.147 194.79C457.363 194.918 457.541 195.111 457.684 195.369C457.826 195.627 457.897 195.973 457.897 196.406V200H457.059V199.261H457.016C456.959 199.38 456.864 199.506 456.732 199.641C456.599 199.776 456.423 199.891 456.203 199.986C455.983 200.08 455.714 200.128 455.397 200.128ZM455.524 199.375C455.856 199.375 456.135 199.31 456.362 199.18C456.592 199.049 456.765 198.881 456.881 198.675C456.999 198.469 457.059 198.253 457.059 198.026V197.259C457.023 197.301 456.945 197.34 456.824 197.376C456.706 197.409 456.568 197.438 456.412 197.464C456.258 197.488 456.108 197.509 455.961 197.528C455.817 197.545 455.7 197.559 455.61 197.571C455.392 197.599 455.188 197.646 454.999 197.71C454.812 197.771 454.66 197.865 454.544 197.99C454.431 198.113 454.374 198.281 454.374 198.494C454.374 198.786 454.482 199.006 454.697 199.155C454.915 199.302 455.191 199.375 455.524 199.375ZM459.426 200V194.545H460.236V195.369H460.293C460.392 195.099 460.572 194.88 460.832 194.712C461.093 194.544 461.386 194.46 461.713 194.46C461.775 194.46 461.852 194.461 461.944 194.464C462.036 194.466 462.106 194.47 462.153 194.474V195.327C462.125 195.32 462.06 195.309 461.958 195.295C461.859 195.278 461.753 195.27 461.642 195.27C461.377 195.27 461.14 195.326 460.932 195.437C460.726 195.546 460.563 195.697 460.442 195.891C460.323 196.083 460.264 196.302 460.264 196.548V200H459.426ZM463.985 196.719V200H463.147V194.545H463.957V195.398H464.028C464.155 195.121 464.35 194.898 464.61 194.73C464.87 194.56 465.207 194.474 465.619 194.474C465.988 194.474 466.311 194.55 466.588 194.702C466.865 194.851 467.08 195.078 467.234 195.384C467.388 195.687 467.465 196.07 467.465 196.534V200H466.627V196.591C466.627 196.162 466.516 195.829 466.293 195.589C466.071 195.348 465.765 195.227 465.377 195.227C465.11 195.227 464.87 195.285 464.66 195.401C464.451 195.517 464.287 195.687 464.166 195.909C464.045 196.132 463.985 196.402 463.985 196.719ZM468.997 200V194.545H469.835V200H468.997ZM469.423 193.636C469.259 193.636 469.118 193.581 469 193.469C468.884 193.358 468.826 193.224 468.826 193.068C468.826 192.912 468.884 192.778 469 192.667C469.118 192.556 469.259 192.5 469.423 192.5C469.586 192.5 469.726 192.556 469.842 192.667C469.96 192.778 470.019 192.912 470.019 193.068C470.019 193.224 469.96 193.358 469.842 193.469C469.726 193.581 469.586 193.636 469.423 193.636ZM472.208 196.719V200H471.37V194.545H472.179V195.398H472.25C472.378 195.121 472.572 194.898 472.833 194.73C473.093 194.56 473.429 194.474 473.841 194.474C474.21 194.474 474.534 194.55 474.811 194.702C475.088 194.851 475.303 195.078 475.457 195.384C475.611 195.687 475.688 196.07 475.688 196.534V200H474.85V196.591C474.85 196.162 474.738 195.829 474.516 195.589C474.293 195.348 473.988 195.227 473.6 195.227C473.332 195.227 473.093 195.285 472.882 195.401C472.674 195.517 472.509 195.687 472.389 195.909C472.268 196.132 472.208 196.402 472.208 196.719ZM479.421 202.159C479.016 202.159 478.668 202.107 478.377 202.003C478.086 201.901 477.843 201.766 477.649 201.598C477.457 201.432 477.304 201.255 477.191 201.065L477.858 200.597C477.934 200.696 478.03 200.81 478.146 200.938C478.262 201.068 478.421 201.18 478.622 201.275C478.825 201.372 479.092 201.42 479.421 201.42C479.861 201.42 480.225 201.314 480.511 201.101C480.798 200.888 480.941 200.554 480.941 200.099V198.991H480.87C480.808 199.091 480.721 199.214 480.607 199.361C480.496 199.505 480.335 199.634 480.124 199.748C479.916 199.859 479.634 199.915 479.279 199.915C478.839 199.915 478.443 199.811 478.093 199.602C477.745 199.394 477.469 199.091 477.265 198.693C477.064 198.295 476.964 197.812 476.964 197.244C476.964 196.686 477.062 196.199 477.258 195.785C477.455 195.368 477.728 195.046 478.079 194.819C478.429 194.589 478.834 194.474 479.293 194.474C479.648 194.474 479.93 194.534 480.138 194.652C480.349 194.768 480.51 194.901 480.621 195.05C480.735 195.196 480.822 195.317 480.884 195.412H480.969V194.545H481.779V200.156C481.779 200.625 481.672 201.006 481.459 201.3C481.249 201.596 480.964 201.812 480.607 201.95C480.252 202.089 479.857 202.159 479.421 202.159ZM479.392 199.162C479.729 199.162 480.013 199.085 480.245 198.931C480.477 198.777 480.653 198.556 480.774 198.267C480.895 197.978 480.955 197.633 480.955 197.23C480.955 196.837 480.896 196.49 480.777 196.19C480.659 195.889 480.484 195.653 480.252 195.483C480.02 195.312 479.733 195.227 479.392 195.227C479.037 195.227 478.741 195.317 478.505 195.497C478.27 195.677 478.094 195.919 477.976 196.222C477.86 196.525 477.802 196.861 477.802 197.23C477.802 197.609 477.861 197.944 477.979 198.235C478.1 198.524 478.277 198.751 478.512 198.917C478.749 199.08 479.042 199.162 479.392 199.162ZM487.177 195.767L486.424 195.98C486.376 195.855 486.307 195.733 486.214 195.614C486.124 195.494 486.001 195.394 485.845 195.316C485.689 195.238 485.489 195.199 485.245 195.199C484.911 195.199 484.633 195.276 484.41 195.43C484.19 195.581 484.08 195.774 484.08 196.009C484.08 196.217 484.156 196.381 484.307 196.502C484.459 196.623 484.696 196.723 485.017 196.804L485.827 197.003C486.315 197.121 486.678 197.302 486.917 197.546C487.156 197.788 487.276 198.099 487.276 198.48C487.276 198.793 487.186 199.072 487.006 199.318C486.829 199.564 486.58 199.759 486.26 199.901C485.941 200.043 485.569 200.114 485.145 200.114C484.589 200.114 484.129 199.993 483.764 199.751C483.399 199.51 483.169 199.157 483.071 198.693L483.867 198.494C483.943 198.788 484.086 199.008 484.297 199.155C484.51 199.302 484.788 199.375 485.131 199.375C485.522 199.375 485.832 199.292 486.062 199.126C486.294 198.958 486.41 198.757 486.41 198.523C486.41 198.333 486.343 198.175 486.211 198.047C486.078 197.917 485.874 197.82 485.6 197.756L484.691 197.543C484.191 197.424 483.824 197.241 483.59 196.992C483.358 196.741 483.242 196.428 483.242 196.051C483.242 195.743 483.328 195.471 483.501 195.234C483.676 194.998 483.914 194.812 484.215 194.677C484.518 194.542 484.861 194.474 485.245 194.474C485.785 194.474 486.208 194.593 486.516 194.83C486.826 195.066 487.046 195.379 487.177 195.767Z" fill="#7D7D7D"/>
</g>
<defs>
<linearGradient id="paint0_linear_26_906" x1="248.09" y1="40.5344" x2="248.09" y2="51.7583" gradientUnits="userSpaceOnUse">
<stop stop-color="#2E2F46"/>
<stop offset="0.355625" stop-color="#19192A"/>
<stop offset="0.975962" stop-color="#19192A"/>
</linearGradient>
<linearGradient id="paint1_linear_26_906" x1="243.6" y1="44.4897" x2="246.807" y2="44.4897" gradientUnits="userSpaceOnUse">
<stop stop-color="white"/>
<stop offset="0.8125" stop-color="#A7ADBB"/>
</linearGradient>
<linearGradient id="paint2_linear_26_906" x1="256.641" y1="39.1754" x2="256.641" y2="41.9241" gradientUnits="userSpaceOnUse">
<stop stop-color="white"/>
<stop offset="0.975962" stop-color="#E1E5F0"/>
</linearGradient>
<linearGradient id="paint3_linear_26_906" x1="243.814" y1="53.0412" x2="255.359" y2="53.0412" gradientUnits="userSpaceOnUse">
<stop stop-color="white"/>
<stop offset="0.584533" stop-color="#E1E5F0"/>
<stop offset="0.975962" stop-color="#A7ADBB"/>
</linearGradient>
<linearGradient id="paint4_linear_26_906" x1="248.09" y1="40.2139" x2="248.09" y2="51.7585" gradientUnits="userSpaceOnUse">
<stop stop-color="white"/>
<stop offset="0.975962" stop-color="#E1E5F0"/>
</linearGradient>
<linearGradient id="paint5_linear_26_906" x1="256.641" y1="47.6429" x2="256.641" y2="56.1944" gradientUnits="userSpaceOnUse">
<stop stop-color="#E1E5F0"/>
<stop offset="0.365355" stop-color="white"/>
<stop offset="0.746615" stop-color="#E1E5F0"/>
</linearGradient>
<linearGradient id="paint6_linear_26_906" x1="260.917" y1="44.4896" x2="249.373" y2="44.4896" gradientUnits="userSpaceOnUse">
<stop offset="0.224595" stop-color="#E1E5F0"/>
<stop offset="0.509713" stop-color="white"/>
<stop offset="0.975962" stop-color="#A7ADBB"/>
</linearGradient>
<linearGradient id="paint7_linear_26_906" x1="308" y1="137" x2="560.5" y2="211" gradientUnits="userSpaceOnUse">
<stop stop-color="#10A0BE"/>
<stop offset="1" stop-color="#FF6B35"/>
</linearGradient>
<clipPath id="clip0_26_906">
<rect width="760" height="240" rx="16" fill="white"/>
</clipPath>
<clipPath id="clip1_26_906">
<rect width="20" height="20" fill="white" transform="translate(244 84.7996)"/>
</clipPath>
<clipPath id="clip2_26_906">
<rect width="20" height="20" fill="white" transform="translate(272 84.7996)"/>
</clipPath>
<clipPath id="clip3_26_906">
<rect width="20" height="20" fill="white" transform="translate(328 84.7996)"/>
</clipPath>
<clipPath id="clip4_26_906">
<rect width="72" height="12" fill="white" transform="translate(548 46)"/>
</clipPath>
<clipPath id="clip5_26_906">
<rect width="20" height="20" fill="white" transform="translate(532 83)"/>
</clipPath>
<clipPath id="clip6_26_906">
<rect width="20" height="20" fill="white" transform="translate(560 83)"/>
</clipPath>
<clipPath id="clip7_26_906">
<rect width="20" height="20" fill="white" transform="translate(616 83)"/>
</clipPath>
</defs>
</svg>
