<svg width="513" height="513" viewBox="0 0 513 513" fill="none" xmlns="http://www.w3.org/2000/svg">
<g clip-path="url(#clip0_261_2)">
<path d="M243.752 291.316H71.6182V247.179H243.752V291.316ZM115.755 70.6301V242.765H71.6182V70.6301H71.626V70.6194H402.654C463.594 70.6201 512.999 120.022 512.999 180.962C512.999 241.902 463.596 291.304 402.656 291.305H296.717V247.179H402.646C439.209 247.178 468.852 217.537 468.852 180.973C468.852 144.409 439.209 114.768 402.646 114.767H248.167V119.181H292.303V401.658C292.303 462.599 242.9 512.001 181.96 512.001C121.02 512.001 71.6182 462.599 71.6182 401.658V295.73H115.755V401.658C115.755 438.223 145.396 467.863 181.96 467.864C218.524 467.863 248.166 438.222 248.166 401.658V114.767H120.169V70.6301H115.755Z" fill="#E1E5F0"/>
<path d="M71.6182 33.103C71.6182 20.9148 81.4986 11.0344 93.6867 11.0344V11.0344C105.875 11.0344 115.755 20.9148 115.755 33.103V242.754H71.6182V33.103Z" fill="url(#paint0_linear_261_2)"/>
<path d="M23.0686 114.756C10.8804 114.756 1 104.876 1 92.6879V92.6879C1 80.4998 10.8804 70.6194 23.0685 70.6194H67.2056V114.756H23.0686Z" fill="url(#paint1_linear_261_2)"/>
<path d="M248.167 22.0686C248.167 9.88044 258.047 0 270.236 0V0C282.424 0 292.304 9.88042 292.304 22.0685V66.2056H248.167V22.0686Z" fill="url(#paint2_linear_261_2)"/>
<path d="M27.4816 291.305C15.2935 291.305 5.41309 281.425 5.41309 269.236V269.236C5.41309 257.048 15.2935 247.168 27.4816 247.168H243.753V291.305H27.4816Z" fill="url(#paint3_linear_261_2)"/>
<path d="M71.6182 26.4822C71.6182 14.2941 81.4986 4.4137 93.6867 4.4137V4.4137C105.875 4.4137 115.755 14.2941 115.755 26.4822V242.754H71.6182V26.4822Z" fill="url(#paint4_linear_261_2)"/>
<path d="M248.167 119.17H292.304V357.511H248.167V119.17Z" fill="url(#paint5_linear_261_2)"/>
<path d="M358.51 70.6194V114.756L120.17 114.756V70.6194L358.51 70.6194Z" fill="url(#paint6_linear_261_2)"/>
</g>
<defs>
<linearGradient id="paint0_linear_261_2" x1="93.6867" y1="11.0344" x2="93.6867" y2="242.754" gradientUnits="userSpaceOnUse">
<stop stop-color="#2E2F46"/>
<stop offset="0.355625" stop-color="#19192A"/>
<stop offset="0.975962" stop-color="#19192A"/>
</linearGradient>
<linearGradient id="paint1_linear_261_2" x1="1" y1="92.6879" x2="67.2056" y2="92.6879" gradientUnits="userSpaceOnUse">
<stop stop-color="white"/>
<stop offset="0.8125" stop-color="#A7ADBB"/>
</linearGradient>
<linearGradient id="paint2_linear_261_2" x1="270.236" y1="-17.0243" x2="270.236" y2="39.7234" gradientUnits="userSpaceOnUse">
<stop stop-color="white"/>
<stop offset="0.975962" stop-color="#E1E5F0"/>
</linearGradient>
<linearGradient id="paint3_linear_261_2" x1="5.41309" y1="269.236" x2="243.753" y2="269.236" gradientUnits="userSpaceOnUse">
<stop stop-color="white"/>
<stop offset="0.584533" stop-color="#E1E5F0"/>
<stop offset="0.975962" stop-color="#A7ADBB"/>
</linearGradient>
<linearGradient id="paint4_linear_261_2" x1="93.6867" y1="4.4137" x2="93.6867" y2="242.754" gradientUnits="userSpaceOnUse">
<stop stop-color="white"/>
<stop offset="0.975962" stop-color="#E1E5F0"/>
</linearGradient>
<linearGradient id="paint5_linear_261_2" x1="270.236" y1="157.79" x2="270.236" y2="334.339" gradientUnits="userSpaceOnUse">
<stop stop-color="#E1E5F0"/>
<stop offset="0.365355" stop-color="white"/>
<stop offset="0.746615" stop-color="#E1E5F0"/>
</linearGradient>
<linearGradient id="paint6_linear_261_2" x1="358.51" y1="92.6879" x2="120.17" y2="92.6879" gradientUnits="userSpaceOnUse">
<stop offset="0.224595" stop-color="#E1E5F0"/>
<stop offset="0.509713" stop-color="white"/>
<stop offset="0.975962" stop-color="#A7ADBB"/>
</linearGradient>
<clipPath id="clip0_261_2">
<rect width="512" height="512" fill="white" transform="translate(0.5 0.5)"/>
</clipPath>
</defs>
</svg>
