<svg width="760" height="240" viewBox="0 0 760 240" fill="none" xmlns="http://www.w3.org/2000/svg">
<rect width="760" height="240" rx="16" fill="#A0A0A0" fill-opacity="0.05"/>
<path d="M145 125.219C145 124.846 145.148 124.488 145.412 124.224C145.676 123.961 146.033 123.812 146.406 123.812H154.844C155.217 123.812 155.574 123.961 155.838 124.224C156.102 124.488 156.25 124.846 156.25 125.219V128.031C156.25 128.404 156.102 128.762 155.838 129.026C155.574 129.289 155.217 129.438 154.844 129.438H146.406C146.033 129.438 145.676 129.289 145.412 129.026C145.148 128.762 145 128.404 145 128.031V125.219ZM167.5 125.219C167.5 126.338 167.056 127.411 166.264 128.202C165.473 128.993 164.4 129.438 163.281 129.438C162.162 129.438 161.089 128.993 160.298 128.202C159.507 127.411 159.062 126.338 159.062 125.219C159.062 124.1 159.507 123.027 160.298 122.236C161.089 121.444 162.162 121 163.281 121C164.4 121 165.473 121.444 166.264 122.236C167.056 123.027 167.5 124.1 167.5 125.219Z" fill="#10A0BE"/>
<path d="M132.5 122.406C132.5 122.033 132.648 121.676 132.912 121.412C133.176 121.148 133.533 121 133.906 121H142.344C142.717 121 143.074 121.148 143.338 121.412C143.602 121.676 143.75 122.033 143.75 122.406V128.031C143.75 128.404 143.602 128.762 143.338 129.026C143.074 129.289 142.717 129.438 142.344 129.438H133.906C133.533 129.438 133.176 129.289 132.912 129.026C132.648 128.762 132.5 128.404 132.5 128.031V122.406Z" fill="url(#paint0_linear_25_143)" fill-opacity="0.5"/>
<path fill-rule="evenodd" clip-rule="evenodd" d="M121.052 62.875C119.989 62.875 119.041 63.6119 118.676 64.72L112.184 84.4384C111.979 85.062 111.875 85.7142 111.875 86.3706V94.2147C111.875 98.65 115.112 102.25 119.106 102.25C123.1 102.25 126.34 98.65 126.34 94.2147C126.34 98.6528 129.577 102.25 133.571 102.25C137.564 102.25 140.804 98.65 140.804 94.2147C140.804 98.6528 144.042 102.25 148.035 102.25C152.029 102.25 155.263 98.6556 155.269 94.2203C155.269 98.6556 158.506 102.25 162.5 102.25C166.494 102.25 169.731 98.65 169.731 94.2147C169.731 98.6528 172.971 102.25 176.965 102.25C180.958 102.25 184.193 98.6556 184.196 94.2203C184.198 98.6556 187.436 102.25 191.429 102.25C195.423 102.25 198.66 98.65 198.66 94.2147C198.66 98.6528 201.898 102.25 205.894 102.25C209.888 102.25 213.125 98.65 213.125 94.2147V86.3706C213.125 85.7142 213.021 85.062 212.816 84.4384L206.324 64.7228C205.959 63.6119 205.011 62.875 203.948 62.875H121.052Z" fill="url(#paint1_linear_25_143)"/>
<path fill-rule="evenodd" clip-rule="evenodd" d="M123.125 105.709V127.562H116.094C115.721 127.562 115.363 127.711 115.099 127.974C114.836 128.238 114.688 128.596 114.688 128.969V131.781C114.688 132.154 114.836 132.512 115.099 132.776C115.363 133.039 115.721 133.187 116.094 133.187H208.906C209.279 133.187 209.637 133.039 209.901 132.776C210.164 132.512 210.312 132.154 210.312 131.781V128.969C210.312 128.596 210.164 128.238 209.901 127.974C209.637 127.711 209.279 127.562 208.906 127.562H201.875V105.709C200.697 105.241 199.61 104.572 198.66 103.732C197.93 104.374 197.12 104.919 196.25 105.352V127.562H128.75V105.352C127.88 104.919 127.07 104.374 126.34 103.732C125.395 104.562 124.315 105.237 123.125 105.709ZM118.906 138.812C118.533 138.812 118.176 138.961 117.912 139.224C117.648 139.488 117.5 139.846 117.5 140.219V161.312C117.5 162.058 117.796 162.774 118.324 163.301C118.851 163.829 119.567 164.125 120.312 164.125H204.688C205.433 164.125 206.149 163.829 206.676 163.301C207.204 162.774 207.5 162.058 207.5 161.312V140.219C207.5 139.846 207.352 139.488 207.088 139.224C206.824 138.961 206.467 138.812 206.094 138.812H118.906Z" fill="#10778B"/>
<path fill-rule="evenodd" clip-rule="evenodd" d="M310 133.5C316.9 133.5 322.5 139.1 322.5 146C322.5 152.9 316.9 158.5 310 158.5C303.1 158.5 297.5 152.9 297.5 146C297.5 139.1 303.1 133.5 310 133.5ZM304.325 150.812L305.188 151.675C305.303 151.791 305.441 151.883 305.592 151.946C305.743 152.008 305.905 152.041 306.069 152.041C306.232 152.041 306.395 152.008 306.546 151.946C306.697 151.883 306.834 151.791 306.95 151.675L310.762 147.862C312.287 148.4 314.062 148.075 315.287 146.85C315.945 146.189 316.372 145.333 316.505 144.41C316.638 143.486 316.469 142.545 316.025 141.725L313.088 144.663L311.325 142.9L314.275 139.963C312.625 139.075 310.537 139.313 309.15 140.7C307.925 141.925 307.6 143.7 308.138 145.225L304.325 149.038C303.837 149.525 303.837 150.325 304.325 150.812Z" fill="url(#paint2_linear_25_143)"/>
<path fill-rule="evenodd" clip-rule="evenodd" d="M390 133.5C396.9 133.5 402.5 139.1 402.5 146C402.5 152.9 396.9 158.5 390 158.5C383.1 158.5 377.5 152.9 377.5 146C377.5 139.1 383.1 133.5 390 133.5ZM384.325 150.812L385.188 151.675C385.303 151.791 385.441 151.883 385.592 151.946C385.743 152.008 385.905 152.041 386.069 152.041C386.232 152.041 386.395 152.008 386.546 151.946C386.697 151.883 386.834 151.791 386.95 151.675L390.762 147.862C392.287 148.4 394.062 148.075 395.287 146.85C395.945 146.189 396.372 145.333 396.505 144.41C396.638 143.486 396.469 142.545 396.025 141.725L393.088 144.663L391.325 142.9L394.275 139.963C392.625 139.075 390.537 139.313 389.15 140.7C387.925 141.925 387.6 143.7 388.138 145.225L384.325 149.038C383.837 149.525 383.837 150.325 384.325 150.812Z" fill="url(#paint3_linear_25_143)"/>
<path fill-rule="evenodd" clip-rule="evenodd" d="M470 136C476.9 136 482.5 141.6 482.5 148.5C482.5 155.4 476.9 161 470 161C463.1 161 457.5 155.4 457.5 148.5C457.5 141.6 463.1 136 470 136ZM464.325 153.312L465.188 154.175C465.303 154.291 465.441 154.383 465.592 154.446C465.743 154.508 465.905 154.541 466.069 154.541C466.232 154.541 466.395 154.508 466.546 154.446C466.697 154.383 466.834 154.291 466.95 154.175L470.762 150.362C472.287 150.9 474.062 150.575 475.287 149.35C475.945 148.689 476.372 147.833 476.505 146.91C476.638 145.986 476.469 145.045 476.025 144.225L473.088 147.163L471.325 145.4L474.275 142.463C472.625 141.575 470.537 141.813 469.15 143.2C467.925 144.425 467.6 146.2 468.138 147.725L464.325 151.538C463.837 152.025 463.837 152.825 464.325 153.312Z" fill="url(#paint4_linear_25_143)"/>
<line opacity="0.7" x1="310.875" y1="114.375" x2="310.875" y2="127.625" stroke="#838282" stroke-width="1.75" stroke-linecap="round" stroke-dasharray="3 3"/>
<line opacity="0.7" x1="470.875" y1="114.375" x2="470.875" y2="127.625" stroke="#838282" stroke-width="1.75" stroke-linecap="round" stroke-dasharray="3 3"/>
<line opacity="0.7" x1="390.875" y1="114.375" x2="390.875" y2="127.625" stroke="#838282" stroke-width="1.75" stroke-linecap="round" stroke-dasharray="3 3"/>
<path opacity="0.7" d="M226.25 127.25L238.75 127.25C241.511 127.25 243.75 129.489 243.75 132.25L243.75 140.125C243.75 142.886 245.989 145.125 248.75 145.125L289.125 145.125" stroke="#838282" stroke-width="1.75" stroke-linecap="round" stroke-dasharray="3 3"/>
<path opacity="0.7" d="M562.5 128.5L547.321 128.5C544.56 128.5 542.321 130.739 542.321 133.5L542.321 141C542.321 143.761 540.083 146 537.321 146L490 146" stroke="#838282" stroke-width="1.75" stroke-linecap="round" stroke-dasharray="3 3"/>
<line opacity="0.7" x1="328.375" y1="145.125" x2="369.125" y2="145.125" stroke="#838282" stroke-width="1.75" stroke-linecap="round" stroke-dasharray="3 3"/>
<line opacity="0.7" x1="410.875" y1="145.125" x2="449.125" y2="145.125" stroke="#838282" stroke-width="1.75" stroke-linecap="round" stroke-dasharray="3 3"/>
<g clip-path="url(#clip0_25_143)">
<path opacity="0.8" d="M597.5 91H586.25C583.266 91 580.405 92.1853 578.295 94.295C576.185 96.4048 575 99.2663 575 102.25V113.5H585.155C584.4 111.773 584.183 109.858 584.533 108.005C584.883 106.153 585.783 104.449 587.116 103.116C588.449 101.783 590.153 100.883 592.005 100.533C593.858 100.183 595.773 100.4 597.5 101.155V91ZM575 119.125V136C575 138.984 576.185 141.845 578.295 143.955C580.405 146.065 583.266 147.25 586.25 147.25H597.5V123.1L591.05 129.55C590.517 130.047 589.812 130.317 589.083 130.304C588.354 130.292 587.659 129.996 587.144 129.481C586.629 128.966 586.333 128.271 586.321 127.542C586.308 126.813 586.578 126.108 587.075 125.575L593.525 119.125H575ZM603.125 147.25H608.75V145.375C608.75 142.889 609.738 140.504 611.496 138.746C613.254 136.988 615.639 136 618.125 136H648.125C648.768 136 649.393 136.062 650 136.188V119.125H607.1L613.55 125.575C613.826 125.832 614.048 126.143 614.202 126.488C614.355 126.833 614.438 127.205 614.445 127.583C614.451 127.961 614.382 128.336 614.24 128.686C614.099 129.036 613.888 129.354 613.621 129.621C613.354 129.888 613.036 130.099 612.686 130.24C612.336 130.382 611.961 130.451 611.583 130.445C611.205 130.438 610.833 130.355 610.488 130.202C610.143 130.048 609.832 129.826 609.575 129.55L603.125 123.1V147.25ZM650 113.5H615.47C616.225 111.773 616.442 109.858 616.092 108.005C615.742 106.153 614.842 104.449 613.509 103.116C612.176 101.783 610.472 100.883 608.62 100.533C606.767 100.183 604.852 100.4 603.125 101.155V91H638.75C641.734 91 644.595 92.1853 646.705 94.295C648.815 96.4048 650 99.2663 650 102.25V113.5ZM606.875 113.5H603.125V109.75C603.125 109.008 603.345 108.283 603.757 107.667C604.169 107.05 604.755 106.569 605.44 106.285C606.125 106.002 606.879 105.927 607.607 106.072C608.334 106.217 609.002 106.574 609.527 107.098C610.051 107.623 610.408 108.291 610.553 109.018C610.698 109.746 610.623 110.5 610.34 111.185C610.056 111.87 609.575 112.456 608.958 112.868C608.342 113.28 607.617 113.5 606.875 113.5ZM597.5 113.5H593.75C593.01 113.5 592.286 113.281 591.67 112.87C591.054 112.459 590.573 111.875 590.288 111.192C590.004 110.508 589.928 109.756 590.07 109.029C590.212 108.303 590.566 107.635 591.088 107.109C591.609 106.583 592.275 106.224 593 106.076C593.726 105.928 594.479 105.998 595.164 106.277C595.85 106.556 596.438 107.032 596.853 107.645C597.269 108.258 597.494 108.98 597.5 109.72V113.5ZM612.5 145.375C612.5 143.883 613.093 142.452 614.148 141.398C615.202 140.343 616.633 139.75 618.125 139.75H648.125C649.617 139.75 651.048 140.343 652.102 141.398C653.157 142.452 653.75 143.883 653.75 145.375V160.375C653.75 161.867 653.157 163.298 652.102 164.352C651.048 165.407 649.617 166 648.125 166H618.125C616.633 166 615.202 165.407 614.148 164.352C613.093 163.298 612.5 161.867 612.5 160.375V145.375ZM650 147.25C649.005 147.25 648.052 146.855 647.348 146.152C646.645 145.448 646.25 144.495 646.25 143.5H642.5C642.5 145.489 643.29 147.397 644.697 148.803C646.103 150.21 648.011 151 650 151V147.25ZM650 154.75C648.011 154.75 646.103 155.54 644.697 156.947C643.29 158.353 642.5 160.261 642.5 162.25H646.25C646.25 161.255 646.645 160.302 647.348 159.598C648.052 158.895 649.005 158.5 650 158.5V154.75ZM620 143.5C620 144.495 619.605 145.448 618.902 146.152C618.198 146.855 617.245 147.25 616.25 147.25V151C618.239 151 620.147 150.21 621.553 148.803C622.96 147.397 623.75 145.489 623.75 143.5H620ZM623.75 162.25C623.75 160.261 622.96 158.353 621.553 156.947C620.147 155.54 618.239 154.75 616.25 154.75V158.5C617.245 158.5 618.198 158.895 618.902 159.598C619.605 160.302 620 161.255 620 162.25H623.75ZM639.688 152.875C639.688 151.135 638.996 149.465 637.765 148.235C636.535 147.004 634.865 146.312 633.125 146.312C631.385 146.312 629.715 147.004 628.485 148.235C627.254 149.465 626.562 151.135 626.562 152.875C626.562 154.615 627.254 156.285 628.485 157.515C629.715 158.746 631.385 159.438 633.125 159.438C634.865 159.438 636.535 158.746 637.765 157.515C638.996 156.285 639.688 154.615 639.688 152.875Z" fill="white"/>
<g opacity="0.85" clip-path="url(#clip1_25_143)">
<path d="M575 102.25C575 99.2663 576.185 96.4048 578.295 94.295C580.405 92.1853 583.266 91 586.25 91H638.75C641.734 91 644.595 92.1853 646.705 94.295C648.815 96.4048 650 99.2663 650 102.25V136.188C649.383 136.062 648.755 135.999 648.125 136H644.375V119.125H607.1L613.55 125.575C613.826 125.832 614.048 126.143 614.202 126.488C614.355 126.833 614.438 127.205 614.445 127.583C614.451 127.961 614.382 128.336 614.24 128.686C614.099 129.036 613.888 129.354 613.621 129.621C613.354 129.888 613.036 130.099 612.686 130.24C612.336 130.382 611.961 130.451 611.583 130.445C611.205 130.438 610.833 130.355 610.488 130.202C610.143 130.048 609.832 129.826 609.575 129.55L603.125 123.1V141.625H609.53C609.015 142.808 608.749 144.085 608.75 145.375V147.25H586.25C583.266 147.25 580.405 146.065 578.295 143.955C576.185 141.845 575 138.984 575 136V102.25ZM586.25 96.625C584.758 96.625 583.327 97.2176 582.273 98.2725C581.218 99.3274 580.625 100.758 580.625 102.25V113.5H585.155C584.4 111.773 584.183 109.858 584.533 108.005C584.883 106.153 585.783 104.449 587.116 103.116C588.449 101.783 590.153 100.883 592.005 100.533C593.858 100.183 595.773 100.4 597.5 101.155V96.625H586.25ZM603.125 96.625V101.155C604.852 100.4 606.767 100.183 608.62 100.533C610.472 100.883 612.176 101.783 613.509 103.116C614.842 104.449 615.742 106.153 616.092 108.005C616.442 109.858 616.225 111.773 615.47 113.5H644.375V102.25C644.375 100.758 643.782 99.3274 642.727 98.2725C641.673 97.2176 640.242 96.625 638.75 96.625H603.125ZM597.5 141.625V123.1L591.05 129.55C590.517 130.047 589.812 130.317 589.083 130.304C588.354 130.292 587.659 129.996 587.144 129.481C586.629 128.966 586.333 128.271 586.321 127.542C586.308 126.813 586.578 126.108 587.075 125.575L593.525 119.125H580.625V136C580.625 137.492 581.218 138.923 582.273 139.977C583.327 141.032 584.758 141.625 586.25 141.625H597.5ZM606.875 113.5C607.617 113.5 608.342 113.28 608.958 112.868C609.575 112.456 610.056 111.87 610.34 111.185C610.623 110.5 610.698 109.746 610.553 109.018C610.408 108.291 610.051 107.623 609.527 107.098C609.002 106.574 608.334 106.217 607.607 106.072C606.879 105.927 606.125 106.002 605.44 106.285C604.755 106.569 604.169 107.05 603.757 107.667C603.345 108.283 603.125 109.008 603.125 109.75V113.5H606.875ZM597.5 109.735C597.497 108.994 597.275 108.27 596.861 107.656C596.447 107.041 595.86 106.563 595.175 106.281C594.489 106 593.736 105.928 593.009 106.074C592.283 106.22 591.616 106.579 591.093 107.104C590.57 107.629 590.214 108.297 590.071 109.024C589.928 109.751 590.003 110.504 590.287 111.189C590.571 111.873 591.052 112.458 591.668 112.869C592.285 113.28 593.009 113.5 593.75 113.5H597.5V109.735ZM612.5 145.375C612.5 143.883 613.093 142.452 614.148 141.398C615.202 140.343 616.633 139.75 618.125 139.75H648.125C649.617 139.75 651.048 140.343 652.102 141.398C653.157 142.452 653.75 143.883 653.75 145.375V160.375C653.75 161.867 653.157 163.298 652.102 164.352C651.048 165.407 649.617 166 648.125 166H618.125C616.633 166 615.202 165.407 614.148 164.352C613.093 163.298 612.5 161.867 612.5 160.375V145.375ZM650 147.25C649.005 147.25 648.052 146.855 647.348 146.152C646.645 145.448 646.25 144.495 646.25 143.5H642.5C642.5 145.489 643.29 147.397 644.697 148.803C646.103 150.21 648.011 151 650 151V147.25ZM650 154.75C648.011 154.75 646.103 155.54 644.697 156.947C643.29 158.353 642.5 160.261 642.5 162.25H646.25C646.25 161.255 646.645 160.302 647.348 159.598C648.052 158.895 649.005 158.5 650 158.5V154.75ZM620 143.5C620 144.495 619.605 145.448 618.902 146.152C618.198 146.855 617.245 147.25 616.25 147.25V151C618.239 151 620.147 150.21 621.553 148.803C622.96 147.397 623.75 145.489 623.75 143.5H620ZM623.75 162.25C623.75 160.261 622.96 158.353 621.553 156.947C620.147 155.54 618.239 154.75 616.25 154.75V158.5C617.245 158.5 618.198 158.895 618.902 159.598C619.605 160.302 620 161.255 620 162.25H623.75ZM639.688 152.875C639.688 151.135 638.996 149.465 637.765 148.235C636.535 147.004 634.865 146.312 633.125 146.312C631.385 146.312 629.715 147.004 628.485 148.235C627.254 149.465 626.562 151.135 626.562 152.875C626.562 154.615 627.254 156.285 628.485 157.515C629.715 158.746 631.385 159.438 633.125 159.438C634.865 159.438 636.535 158.746 637.765 157.515C638.996 156.285 639.688 154.615 639.688 152.875Z" fill="url(#paint5_linear_25_143)"/>
<path d="M612.5 145.375C612.5 143.883 613.093 142.452 614.148 141.398C615.202 140.343 616.633 139.75 618.125 139.75H648.125C649.617 139.75 651.048 140.343 652.102 141.398C653.157 142.452 653.75 143.883 653.75 145.375V160.375C653.75 161.867 653.157 163.298 652.102 164.352C651.048 165.407 649.617 166 648.125 166H618.125C616.633 166 615.202 165.407 614.148 164.352C613.093 163.298 612.5 161.867 612.5 160.375V145.375ZM650 147.25C649.005 147.25 648.052 146.855 647.348 146.152C646.645 145.448 646.25 144.495 646.25 143.5H642.5C642.5 145.489 643.29 147.397 644.697 148.803C646.103 150.21 648.011 151 650 151V147.25ZM650 154.75C648.011 154.75 646.103 155.54 644.697 156.947C643.29 158.353 642.5 160.261 642.5 162.25H646.25C646.25 161.255 646.645 160.302 647.348 159.598C648.052 158.895 649.005 158.5 650 158.5V154.75ZM620 143.5C620 144.495 619.605 145.448 618.902 146.152C618.198 146.855 617.245 147.25 616.25 147.25V151C618.239 151 620.147 150.21 621.553 148.803C622.96 147.397 623.75 145.489 623.75 143.5H620ZM623.75 162.25C623.75 160.261 622.96 158.353 621.553 156.947C620.147 155.54 618.239 154.75 616.25 154.75V158.5C617.245 158.5 618.198 158.895 618.902 159.598C619.605 160.302 620 161.255 620 162.25H623.75ZM639.688 152.875C639.688 151.135 638.996 149.465 637.765 148.235C636.535 147.004 634.865 146.312 633.125 146.312C631.385 146.312 629.715 147.004 628.485 148.235C627.254 149.465 626.562 151.135 626.562 152.875C626.562 154.615 627.254 156.285 628.485 157.515C629.715 158.746 631.385 159.438 633.125 159.438C634.865 159.438 636.535 158.746 637.765 157.515C638.996 156.285 639.688 154.615 639.688 152.875Z" fill="url(#paint6_linear_25_143)"/>
</g>
</g>
<line x1="658.184" y1="96.0022" x2="664.071" y2="95.2752" stroke="#FF8B61" stroke-width="1.66667" stroke-linecap="round"/>
<line x1="654.324" y1="88.1046" x2="664.299" y2="81.3766" stroke="#FF8B61" stroke-width="1.66667" stroke-linecap="round"/>
<line x1="649.514" y1="84.0621" x2="651.426" y2="78.9859" stroke="#FF8B61" stroke-width="1.66667" stroke-linecap="round"/>
<path d="M320.5 93.9167C321.693 93.9167 322.838 94.3776 323.682 95.1981C324.526 96.0185 325 97.1313 325 98.2917V99.3344C325 104.551 318.685 108.5 310 108.5C301.315 108.5 295 104.756 295 99.3344V98.2917C295 97.1313 295.474 96.0185 296.318 95.1981C297.162 94.3776 298.307 93.9167 299.5 93.9167H320.5ZM310 73.5C311.182 73.5 312.352 73.7263 313.444 74.1661C314.536 74.6058 315.528 75.2503 316.364 76.0628C317.2 76.8753 317.863 77.8399 318.315 78.9015C318.767 79.9631 319 81.1009 319 82.25C319 83.3991 318.767 84.5369 318.315 85.5985C317.863 86.6601 317.2 87.6247 316.364 88.4372C315.528 89.2497 314.536 89.8942 313.444 90.3339C312.352 90.7737 311.182 91 310 91C307.613 91 305.324 90.0781 303.636 88.4372C301.948 86.7962 301 84.5706 301 82.25C301 79.9294 301.948 77.7038 303.636 76.0628C305.324 74.4219 307.613 73.5 310 73.5Z" fill="#16B6B3"/>
<path d="M400.5 93.9167C401.693 93.9167 402.838 94.3776 403.682 95.1981C404.526 96.0185 405 97.1313 405 98.2917V99.3344C405 104.551 398.685 108.5 390 108.5C381.315 108.5 375 104.756 375 99.3344V98.2917C375 97.1313 375.474 96.0185 376.318 95.1981C377.162 94.3776 378.307 93.9167 379.5 93.9167H400.5ZM390 73.5C391.182 73.5 392.352 73.7263 393.444 74.1661C394.536 74.6058 395.528 75.2503 396.364 76.0628C397.2 76.8753 397.863 77.8399 398.315 78.9015C398.767 79.9631 399 81.1009 399 82.25C399 83.3991 398.767 84.5369 398.315 85.5985C397.863 86.6601 397.2 87.6247 396.364 88.4372C395.528 89.2497 394.536 89.8942 393.444 90.3339C392.352 90.7737 391.182 91 390 91C387.613 91 385.324 90.0781 383.636 88.4372C381.948 86.7962 381 84.5706 381 82.25C381 79.9294 381.948 77.7038 383.636 76.0628C385.324 74.4219 387.613 73.5 390 73.5Z" fill="#10778B"/>
<path d="M480.5 93.9167C481.693 93.9167 482.838 94.3776 483.682 95.1981C484.526 96.0185 485 97.1313 485 98.2917V99.3344C485 104.551 478.685 108.5 470 108.5C461.315 108.5 455 104.756 455 99.3344V98.2917C455 97.1313 455.474 96.0185 456.318 95.1981C457.162 94.3776 458.307 93.9167 459.5 93.9167H480.5ZM470 73.5C471.182 73.5 472.352 73.7263 473.444 74.1661C474.536 74.6058 475.528 75.2503 476.364 76.0628C477.2 76.8753 477.863 77.8399 478.315 78.9015C478.767 79.9631 479 81.1009 479 82.25C479 83.3991 478.767 84.5369 478.315 85.5985C477.863 86.6601 477.2 87.6247 476.364 88.4372C475.528 89.2497 474.536 89.8942 473.444 90.3339C472.352 90.7737 471.182 91 470 91C467.613 91 465.324 90.0781 463.636 88.4372C461.948 86.7962 461 84.5706 461 82.25C461 79.9294 461.948 77.7038 463.636 76.0628C465.324 74.4219 467.613 73.5 470 73.5Z" fill="#FF6B35"/>
<defs>
<linearGradient id="paint0_linear_25_143" x1="138.125" y1="121" x2="138.203" y2="129.49" gradientUnits="userSpaceOnUse">
<stop stop-color="#FF6B35"/>
<stop offset="1" stop-color="#FF6B35"/>
</linearGradient>
<linearGradient id="paint1_linear_25_143" x1="162.5" y1="62.875" x2="162.5" y2="102.25" gradientUnits="userSpaceOnUse">
<stop stop-color="#10A0BE"/>
<stop offset="1" stop-color="#10778B"/>
</linearGradient>
<linearGradient id="paint2_linear_25_143" x1="297.5" y1="146" x2="322.5" y2="146" gradientUnits="userSpaceOnUse">
<stop stop-color="#16AAB6"/>
<stop offset="1" stop-color="#74D9E2"/>
</linearGradient>
<linearGradient id="paint3_linear_25_143" x1="377.5" y1="146" x2="402.5" y2="146" gradientUnits="userSpaceOnUse">
<stop stop-color="#10778B"/>
<stop offset="1" stop-color="#19AECB"/>
</linearGradient>
<linearGradient id="paint4_linear_25_143" x1="457.5" y1="148.5" x2="482.5" y2="148.5" gradientUnits="userSpaceOnUse">
<stop stop-color="#FF6B35"/>
<stop offset="1" stop-color="#FFC466"/>
</linearGradient>
<linearGradient id="paint5_linear_25_143" x1="590" y1="136" x2="638.75" y2="91" gradientUnits="userSpaceOnUse">
<stop stop-color="#FF6B35"/>
<stop offset="1" stop-color="#10A0BE"/>
</linearGradient>
<linearGradient id="paint6_linear_25_143" x1="614.375" y1="91" x2="614.375" y2="166" gradientUnits="userSpaceOnUse">
<stop stop-color="#10A0BE"/>
<stop offset="1" stop-color="#10778B"/>
</linearGradient>
<clipPath id="clip0_25_143">
<rect width="90" height="90" fill="white" transform="translate(567.5 83.5)"/>
</clipPath>
<clipPath id="clip1_25_143">
<rect width="90" height="90" fill="white" transform="translate(567.5 83.5)"/>
</clipPath>
</defs>
</svg>
