<?xml version="1.0" encoding="UTF-8" standalone="no"?>
<!DOCTYPE svg PUBLIC "-//W3C//DTD SVG 1.1//EN"
 "http://www.w3.org/Graphics/SVG/1.1/DTD/svg11.dtd">
<!-- Generated by graphviz version 2.43.0 (0)
 -->
<!-- Title: %3 Pages: 1 -->
<svg width="1578pt" height="198pt"
 viewBox="0.00 0.00 1577.67 198.00" xmlns="http://www.w3.org/2000/svg" xmlns:xlink="http://www.w3.org/1999/xlink">
<g id="graph0" class="graph" transform="scale(1 1) rotate(0) translate(4 194)">
<title>%3</title>
<polygon fill="white" stroke="transparent" points="-4,4 -4,-194 1573.67,-194 1573.67,4 -4,4"/>
<!-- LP -->
<g id="node1" class="node">
<title>LP</title>
<ellipse fill="#fff2cc" stroke="#d6b656" cx="101.39" cy="-27" rx="101.28" ry="18"/>
<text text-anchor="middle" x="101.39" y="-23.3" font-family="Inter, Helvetica, Arial" font-size="14.00">You (Liquidity Provider)</text>
</g>
<!-- POOL -->
<g id="node2" class="node">
<title>POOL</title>
<path fill="#dae8fc" stroke="#6c8ebf" d="M494.78,-93C494.78,-93 399.78,-93 399.78,-93 393.78,-93 387.78,-87 387.78,-81 387.78,-81 387.78,-67 387.78,-67 387.78,-61 393.78,-55 399.78,-55 399.78,-55 494.78,-55 494.78,-55 500.78,-55 506.78,-61 506.78,-67 506.78,-67 506.78,-81 506.78,-81 506.78,-87 500.78,-93 494.78,-93"/>
<text text-anchor="middle" x="447.28" y="-77.8" font-family="Inter, Helvetica, Arial" font-size="14.00">Pennysia Pool</text>
<text text-anchor="middle" x="447.28" y="-62.8" font-family="Inter, Helvetica, Arial" font-size="14.00">(used by traders)</text>
</g>
<!-- LP&#45;&gt;POOL -->
<g id="edge1" class="edge">
<title>LP&#45;&gt;POOL</title>
<path fill="none" stroke="black" d="M182.15,-37.9C241.27,-45.98 321.03,-56.88 377.39,-64.58"/>
<polygon fill="black" stroke="black" points="377.25,-68.1 387.63,-65.98 378.2,-61.16 377.25,-68.1"/>
<text text-anchor="middle" x="280.28" y="-76.8" font-family="Times,serif" font-size="14.00">Provide liquidity</text>
<text text-anchor="middle" x="280.28" y="-61.8" font-family="Times,serif" font-size="14.00">(deposit tokens)</text>
</g>
<!-- FEES -->
<g id="node4" class="node">
<title>FEES</title>
<polygon fill="#f5f5f5" stroke="#666666" points="868.28,-138 746.28,-138 746.28,-102 874.28,-102 874.28,-132 868.28,-138"/>
<polyline fill="none" stroke="#666666" points="868.28,-138 868.28,-132 "/>
<polyline fill="none" stroke="#666666" points="874.28,-132 868.28,-132 "/>
<text text-anchor="middle" x="810.28" y="-116.3" font-family="Inter, Helvetica, Arial" font-size="14.00">Swap Fees (0.3%)</text>
</g>
<!-- POOL&#45;&gt;FEES -->
<g id="edge3" class="edge">
<title>POOL&#45;&gt;FEES</title>
<path fill="none" stroke="black" d="M506.87,-81.76C522.44,-83.81 539.25,-86 554.78,-88 615.83,-95.85 685.15,-104.55 736.01,-110.9"/>
<polygon fill="black" stroke="black" points="735.9,-114.41 746.26,-112.18 736.76,-107.46 735.9,-114.41"/>
<text text-anchor="middle" x="633.28" y="-110.8" font-family="Times,serif" font-size="14.00">Every trade pays fees</text>
</g>
<!-- WITHDRAW -->
<g id="node6" class="node">
<title>WITHDRAW</title>
<polygon fill="#f5f5f5" stroke="#666666" points="884.78,-38 729.78,-38 729.78,0 890.78,0 890.78,-32 884.78,-38"/>
<polyline fill="none" stroke="#666666" points="884.78,-38 884.78,-32 "/>
<polyline fill="none" stroke="#666666" points="890.78,-32 884.78,-32 "/>
<text text-anchor="middle" x="810.28" y="-22.8" font-family="Inter, Helvetica, Arial" font-size="14.00">Withdraw Anytime</text>
<text text-anchor="middle" x="810.28" y="-7.8" font-family="Inter, Helvetica, Arial" font-size="14.00">(get your tokens + yield)</text>
</g>
<!-- POOL&#45;&gt;WITHDRAW -->
<g id="edge6" class="edge">
<title>POOL&#45;&gt;WITHDRAW</title>
<path fill="none" stroke="black" d="M507.03,-56.15C522.45,-51.98 539.14,-47.91 554.78,-45 609,-34.92 670.5,-28.5 719.45,-24.56"/>
<polygon fill="black" stroke="black" points="720.01,-28.03 729.7,-23.76 719.46,-21.05 720.01,-28.03"/>
<text text-anchor="middle" x="633.28" y="-48.8" font-family="Times,serif" font-size="14.00">When you exit</text>
</g>
<!-- TRADERS -->
<g id="node3" class="node">
<title>TRADERS</title>
<ellipse fill="#e1d5e7" stroke="#9673a6" cx="1528.73" cy="-90" rx="40.89" ry="18"/>
<text text-anchor="middle" x="1528.73" y="-86.3" font-family="Inter, Helvetica, Arial" font-size="14.00">Traders</text>
</g>
<!-- TRADERS&#45;&gt;POOL -->
<g id="edge2" class="edge">
<title>TRADERS&#45;&gt;POOL</title>
<path fill="none" stroke="black" d="M1487.73,-89.41C1326.42,-87.02 722.5,-78.06 517.14,-75.02"/>
<polygon fill="black" stroke="black" points="517.14,-71.52 507.08,-74.87 517.03,-78.52 517.14,-71.52"/>
<text text-anchor="middle" x="991.78" y="-101.8" font-family="Times,serif" font-size="14.00">Trade through the pool</text>
<text text-anchor="middle" x="991.78" y="-86.8" font-family="Times,serif" font-size="14.00">(best price via xy=k)</text>
</g>
<!-- AUTO -->
<g id="node5" class="node">
<title>AUTO</title>
<polygon fill="#d5e8d4" stroke="#82b366" points="1246.78,-146 1092.78,-146 1092.78,-108 1252.78,-108 1252.78,-140 1246.78,-146"/>
<polyline fill="none" stroke="#82b366" points="1246.78,-146 1246.78,-140 "/>
<polyline fill="none" stroke="#82b366" points="1252.78,-140 1246.78,-140 "/>
<text text-anchor="middle" x="1172.78" y="-130.8" font-family="Inter, Helvetica, Arial" font-size="14.00">Auto‑Compound</text>
<text text-anchor="middle" x="1172.78" y="-115.8" font-family="Inter, Helvetica, Arial" font-size="14.00">(back into your position)</text>
</g>
<!-- FEES&#45;&gt;AUTO -->
<g id="edge4" class="edge">
<title>FEES&#45;&gt;AUTO</title>
<path fill="none" stroke="black" d="M874.49,-121.23C932.09,-122.35 1017.78,-124.01 1082.39,-125.26"/>
<polygon fill="black" stroke="black" points="1082.5,-128.77 1092.57,-125.46 1082.64,-121.77 1082.5,-128.77"/>
<text text-anchor="middle" x="991.78" y="-127.8" font-family="Times,serif" font-size="14.00">Protocol routes fees</text>
</g>
<!-- AUTO&#45;&gt;POOL -->
<g id="edge5" class="edge">
<title>AUTO&#45;&gt;POOL</title>
<path fill="none" stroke="black" d="M1092.32,-140.84C972.82,-158.58 741,-180.93 554.78,-126 532.12,-119.32 508.37,-108.17 489.05,-97.9"/>
<polygon fill="black" stroke="black" points="490.69,-94.81 480.24,-93.12 487.35,-100.96 490.69,-94.81"/>
<text text-anchor="middle" x="810.28" y="-178.8" font-family="Times,serif" font-size="14.00">Reinvested into pool</text>
<text text-anchor="middle" x="810.28" y="-163.8" font-family="Times,serif" font-size="14.00">(increases your share)</text>
</g>
<!-- AUTO&#45;&gt;TRADERS -->
<g id="edge7" class="edge">
<title>AUTO&#45;&gt;TRADERS</title>
<path fill="none" stroke="black" stroke-dasharray="5,2" d="M1253.21,-118.7C1322.24,-111.48 1420.06,-101.26 1478.38,-95.16"/>
<polygon fill="black" stroke="black" points="1478.86,-98.63 1488.44,-94.11 1478.13,-91.67 1478.86,-98.63"/>
<text text-anchor="middle" x="1370.28" y="-119.8" font-family="Times,serif" font-size="14.00">More depth → better trades</text>
</g>
<!-- WITHDRAW&#45;&gt;LP -->
<g id="edge8" class="edge">
<title>WITHDRAW&#45;&gt;LP</title>
<path fill="none" stroke="black" stroke-dasharray="5,2" d="M729.61,-19.9C603.25,-21.33 356.53,-24.12 213.07,-25.75"/>
<polygon fill="black" stroke="black" points="212.88,-22.25 202.92,-25.86 212.96,-29.25 212.88,-22.25"/>
<text text-anchor="middle" x="447.28" y="-28.8" font-family="Times,serif" font-size="14.00">Your assets back + gains</text>
</g>
</g>
</svg>
